<svg version="1.1" id="Layer_1" xmlns="http://www.w3.org/2000/svg" xmlns:xlink="http://www.w3.org/1999/xlink" x="0px" y="0px"
	 width="100%" viewBox="0 0 578 430" enable-background="new 0 0 578 430" xml:space="preserve">
<path fill="#000000" opacity="1.000000" stroke="none" 
	d="
M326.000000,431.000000 
	C217.333359,431.000000 109.166718,431.000000 1.000058,431.000000 
	C1.000039,287.666718 1.000039,144.333450 1.000019,1.000135 
	C193.666565,1.000090 386.333130,1.000090 578.999756,1.000045 
	C578.999878,144.333191 578.999878,287.666382 578.999939,430.999786 
	C494.833344,431.000000 410.666656,431.000000 326.000000,431.000000 
M361.445709,216.124832 
	C361.361542,216.437698 361.277374,216.750565 361.073364,217.486908 
	C361.073364,217.486908 360.982422,217.917542 360.350464,218.211914 
	C358.197296,221.798157 356.044128,225.384399 353.288666,229.285110 
	C349.475616,235.141754 345.662537,240.998398 341.299988,247.134872 
	C340.800262,247.984970 340.300507,248.835068 339.198029,250.074478 
	C328.880157,253.853714 318.562286,257.632965 308.049347,261.027863 
	C305.820160,252.836609 303.684662,244.617630 301.277924,236.478897 
	C300.829376,234.962036 299.291412,233.767365 298.256195,232.423996 
	C297.113495,233.716965 295.753784,234.879501 294.879730,236.333923 
	C293.612244,238.443008 292.736359,240.783554 291.622345,242.989441 
	C287.093109,251.957870 282.536713,260.912598 277.341156,270.240723 
	C273.617249,271.131897 269.893311,272.023071 265.733002,272.323517 
	C261.482483,260.336700 257.260986,248.339447 252.955353,236.372482 
	C252.157852,234.155914 251.020966,232.061447 250.034912,229.978180 
	C250.034912,229.978180 250.102524,229.972931 250.000977,229.181931 
	C246.679596,219.428482 243.358231,209.675049 240.021545,199.984436 
	C240.021545,199.984436 240.085709,199.976318 239.983734,199.212128 
	C238.989975,196.747986 237.996216,194.283829 236.981842,191.444153 
	C236.981842,191.444153 236.839233,191.096146 236.969635,190.357208 
	C236.002213,188.554916 235.034790,186.752609 234.000244,184.240860 
	C233.610062,183.162140 233.219879,182.083435 232.965698,180.256424 
	C232.663803,179.136215 232.361893,178.016022 232.050507,176.984055 
	C232.050507,176.984055 232.138840,176.992477 232.027863,176.187042 
	C230.969864,173.596481 231.874191,169.858963 226.939178,169.905106 
	C206.963577,170.091888 186.984924,170.011459 167.007889,169.920044 
	C164.026199,169.906403 162.661652,170.973328 162.955444,173.976028 
	C162.955444,173.976028 162.937393,173.909988 162.296539,174.231476 
	C162.245789,175.167587 162.195038,176.103683 161.790497,177.718109 
	C160.836853,180.430145 159.883209,183.142181 158.384262,186.084808 
	C158.297745,186.441650 158.211212,186.798492 157.995300,187.682922 
	C157.995987,188.044876 157.996674,188.406830 157.333527,189.188568 
	C155.093658,195.741653 152.826462,202.285553 150.619736,208.849777 
	C146.350403,221.549438 142.115158,234.260544 137.944534,246.964981 
	C137.944534,246.964981 137.941193,246.886292 137.289902,247.239227 
	C136.569397,249.535049 135.848907,251.830887 134.996262,254.694717 
	C134.976868,255.083008 134.957458,255.471298 134.274460,256.245392 
	C132.478256,261.812073 130.682068,267.378723 128.232071,273.348297 
	C127.099785,277.222809 125.967506,281.097321 124.922165,284.970551 
	C124.922165,284.970551 124.919258,284.883667 124.260010,285.248718 
	C122.836624,289.308838 121.484909,293.396027 119.967094,297.420532 
	C118.761215,300.617920 117.352180,303.738708 115.989967,306.270111 
	C115.930290,305.859711 115.870613,305.449341 115.933868,304.282104 
	C115.041718,301.470398 113.631035,298.378754 110.328552,300.577118 
	C108.683830,301.671967 107.936287,305.107330 107.951920,307.476227 
	C107.976753,311.237244 107.893501,314.188385 102.974022,313.441101 
	C102.974022,313.441101 102.811356,312.981537 102.956512,312.218445 
	C103.342560,310.494446 103.728600,308.770416 104.043816,307.042084 
	C104.043816,307.042084 104.042030,307.113037 104.617149,306.844238 
	C104.784584,306.241302 104.952019,305.638367 105.040199,305.043884 
	C105.040199,305.043884 105.108093,305.085663 105.766479,304.715576 
	C106.110405,303.647003 106.434540,302.571564 106.801544,301.510956 
	C108.804710,295.722198 107.524193,294.025879 101.103531,293.981598 
	C93.268486,293.927612 87.337029,298.806976 85.997475,306.408264 
	C84.794098,313.236755 87.514893,319.383972 93.079926,322.587372 
	C93.248192,322.867004 93.495453,323.010742 94.181290,323.649506 
	C95.122704,323.705750 96.064110,323.762024 97.732307,324.153442 
	C103.321831,326.571655 107.465630,323.264038 112.352989,319.928070 
	C110.971870,324.018250 109.996140,327.392151 108.597206,330.580383 
	C108.360397,331.120026 106.302376,330.860596 104.905823,330.471741 
	C104.597382,330.375336 104.288948,330.278900 103.383614,330.019440 
	C102.972160,330.000366 102.560707,329.981262 101.743408,329.305786 
	C98.145943,328.256866 94.548477,327.207947 90.555466,326.017090 
	C90.555466,326.017090 90.136208,325.988342 89.911530,325.488861 
	C89.592133,325.384247 89.272736,325.279602 88.373566,325.014130 
	C87.973137,325.003693 87.572716,324.993256 86.862068,324.389038 
	C86.225006,324.309967 85.587944,324.230896 84.571899,324.009613 
	C84.571899,324.009613 84.168167,323.980499 83.815392,323.335022 
	C82.222481,322.857788 80.629570,322.380554 79.008118,321.986023 
	C79.008118,321.986023 79.086884,321.947968 78.695793,321.286285 
	C76.720085,320.618835 74.729858,319.991119 72.771706,319.275665 
	C68.764503,317.811554 67.196838,320.044250 66.140755,323.408478 
	C65.139221,326.598877 65.442314,328.876434 69.129723,330.024170 
	C72.224213,330.987305 75.179787,332.396820 78.401764,333.691010 
	C73.271736,339.691193 72.707970,344.009552 76.234032,349.747559 
	C78.324776,354.310608 82.318283,356.702240 86.875771,357.221588 
	C91.089806,357.701752 95.461639,356.797119 99.919067,356.491730 
	C100.024170,356.757446 100.473000,357.891998 101.065178,359.547211 
	C101.377174,359.641693 101.689171,359.736176 102.501831,359.928192 
	C102.667831,359.891418 102.833832,359.854675 103.927467,359.971588 
	C117.083130,359.984039 130.238785,360.009247 143.394455,360.004517 
	C152.478714,360.001251 152.528427,359.996033 154.839188,351.355499 
	C155.671204,348.244385 156.200714,345.052368 156.991623,341.333496 
	C156.996536,340.948792 157.001450,340.564117 157.682693,339.754913 
	C158.464249,336.956024 159.351898,334.181519 160.001511,331.352356 
	C160.890625,327.480072 162.883057,325.658295 167.152313,325.924591 
	C172.790283,326.276215 178.470367,325.882202 184.126266,326.034485 
	C191.714935,326.238739 199.297592,326.908600 206.883194,326.914551 
	C214.136353,326.920227 221.391174,326.356079 228.642807,325.993073 
	C231.766510,325.836731 233.378708,326.990906 234.088913,330.291351 
	C234.955719,334.319611 236.617981,338.176666 237.940201,342.036102 
	C237.940201,342.036102 237.868469,342.033569 237.973236,342.851440 
	C239.141174,347.554352 240.059784,352.343109 241.630569,356.907379 
	C242.095581,358.258545 244.374649,359.804840 245.863480,359.848083 
	C253.990891,360.084106 262.131134,359.879211 271.161621,359.961395 
	C285.813812,359.970673 300.466034,360.002411 315.118195,359.984680 
	C348.413879,359.944397 381.709534,359.879822 415.746613,359.955261 
	C416.496948,359.919586 417.247314,359.883911 418.926819,359.976562 
	C423.908844,359.976440 428.893036,359.887787 433.872070,360.009613 
	C436.831512,360.082031 438.067261,358.925720 438.045105,355.918823 
	C437.959534,344.294189 437.959320,332.668335 438.027863,321.043518 
	C438.045441,318.060852 436.850708,316.941467 433.859009,316.957916 
	C408.287811,317.098267 382.716064,317.143494 356.454559,317.049561 
	C355.985016,316.999786 355.515442,316.950012 355.259613,316.246735 
	C372.898529,288.587372 390.647217,260.996948 408.100555,233.220963 
	C412.566437,226.113800 416.098175,218.419632 420.561218,210.701294 
	C420.727844,210.154083 420.894470,209.606873 421.670288,208.763931 
	C423.592957,206.497772 425.692780,204.357117 427.404144,201.941269 
	C432.048370,195.385239 436.527954,188.712585 441.628571,181.694534 
	C445.248047,175.321442 448.867493,168.948334 452.486969,162.575241 
	C452.001587,162.287476 451.516235,161.999725 451.030853,161.711960 
	C450.527283,162.271378 449.747406,162.752441 449.563080,163.402390 
	C447.819031,169.552170 443.449249,170.142563 437.794495,170.118362 
	C389.724884,169.912704 341.653870,170.050293 293.583801,169.913757 
	C289.201019,169.901306 287.787384,171.219986 287.899200,175.594345 
	C288.166901,186.066589 287.951447,196.550537 288.036926,207.028885 
	C288.048065,208.395050 288.682007,209.756134 289.563385,211.764771 
	C295.039795,211.838242 300.516083,211.965820 305.992615,211.975220 
	C323.601227,212.005447 341.209930,211.984558 358.818604,212.005661 
	C360.849640,212.008087 363.498779,211.289200 362.995270,215.000885 
	C362.995270,215.000885 362.968719,214.946945 362.481354,215.102127 
	C362.316101,215.387131 362.150879,215.672134 361.965698,215.966827 
	C361.965698,215.966827 361.953827,215.985580 361.445709,216.124832 
M470.614136,98.207359 
	C470.351318,98.407478 470.153809,98.658897 469.999756,99.359062 
	C469.999756,99.359062 470.017975,99.756683 469.631805,100.279320 
	C469.409943,100.884926 469.188080,101.490532 468.801941,102.771317 
	C466.159637,108.537025 463.517303,114.302734 460.145782,120.092224 
	C455.163208,122.711739 450.180603,125.331253 444.417938,128.004105 
	C438.869171,130.197937 433.201935,132.148300 427.852539,134.751785 
	C426.465210,135.426987 426.072449,138.145721 425.222839,139.925766 
	C426.887787,140.595520 428.593353,141.900101 430.208862,141.796783 
	C433.152557,141.608505 436.036713,140.557220 438.956757,139.916336 
	C444.326141,138.737854 449.703522,137.595840 456.042542,136.230850 
	C454.862854,139.804031 455.999512,143.074661 451.528564,143.396927 
	C449.493988,143.543579 447.530090,144.670364 445.534119,145.352585 
	C446.425415,147.158264 447.301941,148.971466 448.216583,150.765259 
	C448.510406,151.341522 448.904663,151.866608 449.104980,152.182022 
	C447.986450,154.523956 446.988007,156.614517 445.989532,158.705063 
	C446.433990,158.999725 446.878418,159.294388 447.322876,159.589066 
	C454.007874,156.530258 461.464417,154.756241 466.503021,148.189209 
	C464.755829,147.181671 463.556519,146.490082 461.761017,145.454712 
	C464.514984,140.998459 466.213348,135.723572 469.829987,132.950867 
	C476.336182,127.962921 484.046082,124.564163 491.132874,120.301559 
	C493.011108,119.171837 494.450836,117.313187 496.091919,115.789230 
	C495.711334,115.082916 495.330750,114.376602 494.950134,113.670296 
	C491.963715,114.448914 488.977264,115.227531 486.000000,115.999870 
	C486.000000,115.999870 486.006470,115.990517 485.315247,115.874397 
	C482.814819,116.016716 480.314392,116.159035 476.733093,116.362869 
	C478.246185,112.479164 479.557434,109.113564 480.947327,105.350159 
	C480.947327,105.350159 481.043610,104.956261 480.984680,104.994423 
	C480.984680,104.994423 480.992523,105.064186 481.487061,104.463089 
	C481.321899,101.954124 481.156738,99.445160 480.993530,97.003326 
	C480.993530,97.003326 481.054962,97.030518 480.794006,96.378616 
	C479.114929,96.235161 477.435883,96.091713 475.148499,95.955696 
	C474.743958,95.983299 474.339447,96.010902 473.526917,96.281479 
	C473.282227,96.491226 473.090485,96.741501 473.022125,97.027657 
	C473.022125,97.027657 473.039490,96.959167 472.448486,97.085838 
	C471.948029,97.393494 471.447571,97.701141 471.012817,98.020439 
	C471.012817,98.020439 471.027557,97.955292 470.614136,98.207359 
z"/>
<path fill="#9DCD64" opacity="1.000000" stroke="none" 
	d="
M157.006378,340.179413 
	C157.001450,340.564117 156.996536,340.948792 156.607605,341.708191 
	C155.382324,343.577179 153.995026,345.001556 153.793259,346.577698 
	C152.862915,353.845093 151.062134,356.706451 145.522034,357.999146 
	C131.372849,357.998444 117.691238,357.998596 103.838448,357.721832 
	C103.477470,356.077026 102.766876,354.521271 103.181641,353.371490 
	C106.065399,345.377380 110.074448,338.010559 111.812889,329.328979 
	C113.990669,318.453308 118.926765,308.073700 123.213379,297.703644 
	C124.988762,293.408661 126.588409,289.466797 124.919258,284.883667 
	C124.919258,284.883667 124.922165,284.970551 125.184311,284.791504 
	C126.958305,280.738251 128.470154,276.864105 130.167923,272.684082 
	C132.117111,268.122864 134.003464,263.911469 135.553833,259.579895 
	C135.923981,258.545715 135.173264,257.110413 134.938065,255.859589 
	C134.957458,255.471298 134.976868,255.083008 135.427795,254.317993 
	C136.553284,251.589600 137.247223,249.237946 137.941193,246.886292 
	C137.941193,246.886292 137.944534,246.964981 138.236938,246.843857 
	C138.961777,246.239670 139.586884,245.828644 139.798355,245.262985 
	C144.439743,232.847168 149.461151,220.549042 153.457642,207.926926 
	C155.419312,201.731430 159.148575,195.764526 157.997375,188.768784 
	C157.996674,188.406830 157.995987,188.044876 158.244232,187.358368 
	C158.638641,186.640610 158.784103,186.247406 158.929581,185.854218 
	C159.883209,183.142181 160.836853,180.430145 162.153290,177.102737 
	C162.656540,175.628235 162.796967,174.769119 162.937408,173.909988 
	C162.937393,173.909988 162.955444,173.976028 163.286789,173.896072 
	C166.854172,172.892960 170.075134,171.239746 173.328827,171.172623 
	C187.640701,170.877319 201.965485,171.223267 216.278290,170.952118 
	C222.553085,170.833252 228.194656,171.433426 232.138840,176.992477 
	C232.138840,176.992477 232.050507,176.984055 232.034729,177.296585 
	C232.289200,178.740982 232.559464,179.872849 232.829712,181.004715 
	C233.219879,182.083435 233.610062,183.162140 234.053482,184.960907 
	C235.017563,187.486008 235.928406,189.291077 236.839233,191.096146 
	C236.839233,191.096146 236.981842,191.444153 236.986511,192.067551 
	C237.357193,195.402084 235.896103,198.889282 240.085709,199.976318 
	C240.085709,199.976318 240.021545,199.984436 240.016876,200.368011 
	C241.415024,206.298462 242.500748,211.952042 244.320572,217.358536 
	C245.788025,221.718124 248.141907,225.779343 250.102524,229.972931 
	C250.102524,229.972931 250.034912,229.978180 250.030731,230.375732 
	C250.466248,233.531342 250.566833,236.397736 251.407349,239.027664 
	C254.259933,247.953262 257.283020,256.827667 260.426147,265.655731 
	C262.035156,270.174988 262.186218,273.978851 256.772461,276.474976 
	C250.336334,278.229218 244.221481,279.780457 237.726135,281.311523 
	C236.612900,281.461639 235.880142,281.631989 234.880280,281.701569 
	C234.103226,281.802704 233.593307,282.004547 232.687592,282.209778 
	C230.202026,282.471619 228.112228,282.730011 225.771332,282.757843 
	C220.583405,280.364929 219.669388,275.575439 218.318771,271.190277 
	C215.341507,261.523651 212.691986,251.754562 209.614395,242.121307 
	C208.586288,238.903229 206.663162,235.971069 205.079346,232.740417 
	C205.009537,232.572601 205.000320,232.209198 205.014313,231.808014 
	C205.021927,230.607574 205.015579,229.808334 205.088440,228.895157 
	C205.269058,228.499512 205.209869,228.251022 204.985199,228.023697 
	C204.980316,228.011612 204.965012,227.990524 204.962463,227.739624 
	C204.953094,227.321625 204.946259,227.154495 204.797119,226.810226 
	C204.456818,226.402771 204.239929,226.191833 204.148743,225.655609 
	C203.552673,221.706451 202.940582,218.069458 202.038055,214.506012 
	C200.972458,210.298691 199.655792,206.154968 198.447952,201.983658 
	C197.849075,201.965439 197.250214,201.947205 196.651337,201.928970 
	C195.506912,206.098434 194.429321,210.287643 193.204697,214.433411 
	C190.307571,224.241058 187.299042,234.016083 184.468384,243.842575 
	C184.195709,244.789139 184.852478,246.003433 185.041229,247.403931 
	C184.943695,248.124939 184.882706,248.535446 184.663788,249.118423 
	C184.312744,249.537567 184.149933,249.802841 184.016449,250.053986 
	C184.015488,250.021286 184.078979,250.037186 183.723740,250.123535 
	C182.290482,251.757675 180.760818,253.165726 180.229568,254.882706 
	C179.161972,258.332977 178.721191,261.971558 177.871368,265.496216 
	C176.697495,270.364746 175.384735,275.199799 174.078293,280.451477 
	C173.718369,283.364990 173.411591,285.876160 173.122513,288.242645 
	C175.649628,288.242645 177.176651,288.242645 178.933533,288.550385 
	C181.777802,289.190948 184.392181,289.523773 187.454529,289.918518 
	C215.077103,291.704285 242.128387,290.294769 269.190582,286.459869 
	C270.579926,290.480408 271.880554,294.244171 273.112610,298.379761 
	C274.716888,302.803894 276.389709,306.856232 277.907104,311.191101 
	C278.057159,313.062622 278.339691,314.656433 278.672211,316.239777 
	C280.161255,323.330383 281.664520,330.418030 283.179810,337.635590 
	C283.196960,337.764435 283.048431,337.977753 282.750427,338.045410 
	C281.992035,339.098236 281.531677,340.083374 281.008301,341.357483 
	C280.614380,342.125275 280.283447,342.604126 279.669067,343.167969 
	C278.972992,343.882690 278.560394,344.512390 278.105957,345.126892 
	C278.064117,345.111755 278.150452,345.090149 277.840729,345.239868 
	C275.709381,348.585358 273.887787,351.781158 272.084473,355.007507 
	C272.102753,355.037994 272.051422,355.087250 271.703918,355.158630 
	C269.130096,356.473541 267.006805,358.474976 264.654846,358.794891 
	C260.413483,359.371735 256.015289,359.199646 251.719437,358.866028 
	C246.698700,358.476135 243.079605,356.236206 241.802444,350.735657 
	C241.096313,347.694458 239.218246,344.925323 237.868469,342.033569 
	C237.868469,342.033569 237.940201,342.036102 238.036926,341.717621 
	C241.235718,337.495392 238.362320,334.437988 236.906570,330.982941 
	C233.936844,323.934540 232.785172,323.104553 225.124863,323.728058 
	C218.833603,324.240143 212.530838,324.868164 206.229691,324.909088 
	C202.168625,324.935455 198.107605,323.633881 194.035385,323.562164 
	C186.058334,323.421692 178.071609,323.888153 170.092392,323.796997 
	C162.630600,323.711761 158.155273,326.970245 156.934799,334.217865 
	C156.610062,336.146362 156.964020,338.189117 157.006378,340.179413 
z"/>
<path fill="#2191C4" opacity="1.000000" stroke="none" 
	d="
M341.849487,246.855042 
	C345.662537,240.998398 349.475616,235.141754 353.937531,229.064117 
	C359.345947,226.739487 360.288086,222.401047 360.982422,217.917542 
	C360.982422,217.917542 361.073364,217.486908 361.298126,217.122940 
	C361.737244,216.540573 361.880890,216.282776 361.953827,215.985580 
	C361.953827,215.985580 361.965698,215.966827 362.185852,215.843399 
	C362.667969,215.516449 362.855530,215.258774 362.968719,214.946945 
	C362.968719,214.946945 362.995270,215.000885 363.225891,214.914337 
	C364.973450,210.630020 364.602448,210.070084 359.597107,210.058060 
	C336.391541,210.002274 313.185791,210.006439 289.933899,209.572357 
	C289.925690,196.797104 289.963745,184.438614 290.470581,172.069366 
	C340.961151,172.023895 390.982941,171.989182 441.323914,171.991547 
	C441.958344,173.240326 442.828613,174.653534 442.476654,175.622971 
	C441.670044,177.844589 440.266937,179.849640 438.844177,182.168213 
	C431.418945,190.255783 424.255585,198.117752 416.762634,206.069946 
	C396.091980,223.455872 373.084442,236.337326 348.662567,246.803146 
	C346.737640,247.628067 344.136414,246.874817 341.849487,246.855042 
z"/>
<path fill="#111012" opacity="1.000000" stroke="none" 
	d="
M473.934906,96.038498 
	C474.339447,96.010902 474.743958,95.983299 475.720276,96.094894 
	C477.879669,96.499573 479.467316,96.765045 481.054962,97.030518 
	C481.054962,97.030518 480.993530,97.003326 481.002136,97.421646 
	C481.004700,100.248032 480.998596,102.656113 480.992523,105.064186 
	C480.992523,105.064186 480.984680,104.994423 480.942413,105.065094 
	C480.764343,105.329681 480.753876,105.533745 480.868683,105.747955 
	C479.557434,109.113564 478.246185,112.479164 476.733093,116.362869 
	C480.314392,116.159035 482.814819,116.016716 485.684937,115.981773 
	C486.054626,116.089149 485.990814,116.006157 485.990814,116.006157 
	C488.977264,115.227531 491.963715,114.448914 494.950134,113.670296 
	C495.330750,114.376602 495.711334,115.082916 496.091919,115.789230 
	C494.450836,117.313187 493.011108,119.171837 491.132874,120.301559 
	C484.046082,124.564163 476.336182,127.962921 469.829987,132.950867 
	C466.213348,135.723572 464.514984,140.998459 461.761017,145.454712 
	C463.556519,146.490082 464.755829,147.181671 466.503021,148.189209 
	C461.464417,154.756241 454.007874,156.530258 447.322876,159.589066 
	C446.878418,159.294388 446.433990,158.999725 445.989532,158.705063 
	C446.988007,156.614517 447.986450,154.523956 449.104980,152.182022 
	C448.904663,151.866608 448.510406,151.341522 448.216583,150.765259 
	C447.301941,148.971466 446.425415,147.158264 445.534119,145.352570 
	C447.530090,144.670364 449.493988,143.543579 451.528564,143.396927 
	C455.999512,143.074661 454.862854,139.804031 456.042542,136.230850 
	C449.703522,137.595840 444.326141,138.737854 438.956757,139.916336 
	C436.036713,140.557220 433.152557,141.608505 430.208862,141.796783 
	C428.593353,141.900101 426.887787,140.595520 425.222839,139.925781 
	C426.072449,138.145721 426.465210,135.426987 427.852539,134.751785 
	C433.201935,132.148300 438.869171,130.197937 445.140625,127.883179 
	C450.867188,125.197647 455.871094,122.633041 460.875000,120.068443 
	C463.517303,114.302734 466.159637,108.537025 469.090668,102.180382 
	C469.592255,100.978523 469.805115,100.367607 470.017975,99.756683 
	C470.017975,99.756683 469.999756,99.359062 470.214233,99.031883 
	C470.679749,98.495949 470.879333,98.246147 471.027557,97.955292 
	C471.027557,97.955292 471.012817,98.020439 471.279236,97.973984 
	C472.043610,97.604744 472.541534,97.281960 473.039490,96.959167 
	C473.039490,96.959167 473.022125,97.027657 473.182251,96.896576 
	C473.596924,96.569649 473.794434,96.327316 473.934906,96.038498 
M470.477081,129.501282 
	C470.477081,129.501282 470.519501,129.485809 470.477081,129.501282 
z"/>
<path fill="#9ECC67" opacity="1.000000" stroke="none" 
	d="
M90.136208,325.988342 
	C90.136208,325.988342 90.555466,326.017090 90.895996,326.401733 
	C94.150002,327.867615 97.063461,328.948822 100.058258,330.252106 
	C100.709969,330.353912 101.280350,330.233612 101.922119,330.069153 
	C101.993507,330.024994 102.149254,329.962189 102.149254,329.962189 
	C102.560707,329.981262 102.972160,330.000366 103.686417,330.307312 
	C103.989227,330.595215 103.995605,331.007965 104.083160,331.333801 
	C104.997627,332.993622 105.824532,334.327606 107.112984,336.406128 
	C103.197495,338.045685 99.684364,339.516785 96.006546,340.661743 
	C90.300240,334.797546 86.094139,335.368561 83.949738,342.142517 
	C84.254761,342.886627 84.686340,343.421143 85.083237,343.957458 
	C85.048546,343.959259 85.052689,343.889923 85.075188,344.282623 
	C86.047531,349.342926 89.864334,348.256195 92.540283,347.668762 
	C93.959801,347.357117 94.837494,344.577332 95.965218,342.943176 
	C95.970650,342.974670 95.920204,342.935333 96.284805,342.977661 
	C99.779724,343.716461 102.109497,345.450043 101.145470,348.848145 
	C99.716423,353.885437 91.803360,357.347626 87.132088,354.962189 
	C83.262650,352.986206 79.747986,350.315521 76.054733,347.527191 
	C76.909668,343.668671 77.437592,340.094574 78.754425,336.839691 
	C80.251762,333.138611 79.551865,331.021667 75.566406,329.899445 
	C73.820503,329.407806 71.847473,329.254669 70.406349,328.300354 
	C69.300728,327.568146 67.971886,325.407837 68.336266,324.618439 
	C68.942741,323.304626 70.723007,322.009369 72.196892,321.741913 
	C74.408295,321.340729 76.782127,321.834686 79.086884,321.947998 
	C79.086884,321.947968 79.008118,321.986023 79.087494,322.268982 
	C80.833977,323.028107 82.501068,323.504303 84.168167,323.980499 
	C84.168167,323.980499 84.571899,324.009613 85.011490,324.249756 
	C86.024818,324.654236 86.598557,324.818542 87.172287,324.982849 
	C87.572716,324.993256 87.973137,325.003693 88.846687,325.250427 
	C89.579575,325.674011 89.851707,325.841217 90.136208,325.988342 
z"/>
<path fill="#383A36" opacity="1.000000" stroke="none" 
	d="
M238.106613,281.331696 
	C244.221481,279.780457 250.336334,278.229218 257.172546,276.483246 
	C260.652374,275.163788 263.410889,274.039001 266.169403,272.914246 
	C269.893311,272.023071 273.617249,271.131897 277.919189,270.300903 
	C282.384186,269.163330 286.271118,267.965576 290.520569,266.774597 
	C293.985809,265.242065 297.088562,263.702820 300.429077,262.396637 
	C303.648346,265.059937 306.002289,263.584076 308.244415,261.412201 
	C318.562286,257.632965 328.880157,253.853714 339.648651,250.218231 
	C341.883392,250.574631 343.966064,251.489410 345.400452,250.879517 
	C351.948273,248.095459 358.235779,244.700974 364.774536,241.893143 
	C368.729797,240.194748 372.973267,239.167511 376.852539,238.110474 
	C373.308807,240.301331 370.081512,242.380844 366.678162,244.114822 
	C331.334839,262.121765 293.615814,272.757172 254.789612,279.834442 
	C249.319397,280.831573 243.671997,280.856659 238.106613,281.331696 
z"/>
<path fill="#111012" opacity="1.000000" stroke="none" 
	d="
M290.158051,266.767822 
	C286.271118,267.965576 282.384186,269.163330 278.243805,270.116730 
	C282.536713,260.912598 287.093109,251.957870 291.622345,242.989441 
	C292.736359,240.783554 293.612244,238.443008 294.879730,236.333923 
	C295.753784,234.879501 297.113495,233.716965 298.256195,232.423996 
	C299.291412,233.767365 300.829376,234.962036 301.277924,236.478897 
	C303.684662,244.617630 305.820160,252.836609 308.146881,261.220032 
	C306.002289,263.584076 303.648346,265.059937 300.254089,262.105469 
	C299.072388,259.269348 298.303406,256.957428 297.534424,254.645508 
	C297.128601,254.619736 296.722748,254.593964 296.316895,254.568192 
	C295.558136,259.367767 289.240997,261.019104 290.158051,266.767822 
z"/>
<path fill="#2E8AB1" opacity="1.000000" stroke="none" 
	d="
M420.059052,210.995148 
	C416.098175,218.419632 412.566437,226.113800 408.100555,233.220963 
	C390.647217,260.996948 372.898529,288.587372 355.120911,316.845276 
	C354.963623,317.625244 354.945068,317.806702 354.627991,317.983307 
	C353.753479,317.219971 352.527344,316.185547 352.712158,315.749817 
	C353.594299,313.670776 354.859589,311.754303 356.197144,309.415253 
	C354.904724,309.220520 353.971710,309.079926 353.339996,308.761719 
	C355.154510,307.715088 357.168610,307.205292 358.094208,305.914764 
	C362.092041,300.340729 365.862640,294.596191 369.541901,288.803162 
	C373.623779,282.376160 377.349823,275.719635 381.525970,269.356750 
	C390.425140,255.797684 399.532593,242.375443 408.491852,228.855438 
	C409.169891,227.832230 409.350006,226.479065 409.879486,224.935425 
	C408.145447,224.706833 406.871277,224.538864 405.738342,224.099152 
	C406.993805,222.621201 408.108032,221.414993 409.463745,220.046356 
	C409.902039,219.342499 410.098816,218.801102 410.636658,218.223907 
	C412.343567,216.475861 413.709442,214.763626 415.045837,213.029480 
	C415.016418,213.007584 415.045685,213.074844 415.381439,213.075897 
	C416.792450,212.323456 417.867706,211.569946 419.221405,210.864746 
	C419.686249,210.940414 419.872650,210.967789 420.059052,210.995148 
z"/>
<path fill="#A1C472" opacity="1.000000" stroke="none" 
	d="
M76.076141,347.952606 
	C79.747986,350.315521 83.262650,352.986206 87.132088,354.962189 
	C91.803360,357.347626 99.716423,353.885437 101.145470,348.848145 
	C102.109497,345.450043 99.779724,343.716461 96.321457,342.651703 
	C96.052757,341.851593 96.111992,341.419739 96.171227,340.987854 
	C99.684364,339.516785 103.197495,338.045685 107.112984,336.406128 
	C105.824532,334.327606 104.997627,332.993622 104.355904,331.326294 
	C104.722656,330.985443 104.904221,330.977905 105.085793,330.970337 
	C106.302376,330.860596 108.360397,331.120026 108.597206,330.580383 
	C109.996140,327.392151 110.971870,324.018250 112.352989,319.928070 
	C107.465630,323.264038 103.321831,326.571655 97.365936,323.776306 
	C96.999565,323.399170 96.993385,322.980042 97.240463,322.760559 
	C99.221558,322.351685 100.966660,322.231049 102.686447,321.953491 
	C104.412811,321.674866 106.949409,321.821930 107.680756,320.772125 
	C110.760284,316.351654 113.297600,311.553467 116.033333,306.893494 
	C117.352180,303.738708 118.761215,300.617920 119.967094,297.420532 
	C121.484909,293.396027 122.836624,289.308838 124.589630,285.066193 
	C126.588409,289.466797 124.988762,293.408661 123.213379,297.703644 
	C118.926765,308.073700 113.990669,318.453308 111.812889,329.328979 
	C110.074448,338.010559 106.065399,345.377380 103.181641,353.371490 
	C102.766876,354.521271 103.477470,356.077026 103.839790,357.966980 
	C104.012314,358.489044 104.020119,358.979187 103.837891,359.103607 
	C103.418945,359.404541 103.200340,359.601166 102.999840,359.817902 
	C102.833832,359.854675 102.667831,359.891418 102.086029,359.726349 
	C101.434509,359.337860 101.185036,359.171875 100.921822,359.026581 
	C100.473000,357.891998 100.024170,356.757446 99.919067,356.491730 
	C95.461639,356.797119 91.089806,357.701752 86.875771,357.221588 
	C82.318283,356.702240 78.324776,354.310608 76.122055,349.141510 
	C76.032097,348.341156 76.054115,348.146881 76.076141,347.952606 
z"/>
<path fill="#9DCD64" opacity="1.000000" stroke="none" 
	d="
M116.011650,306.581787 
	C113.297600,311.553467 110.760284,316.351654 107.680756,320.772125 
	C106.949409,321.821930 104.412811,321.674866 102.686447,321.953491 
	C100.966660,322.231049 99.221558,322.351685 96.845261,322.761841 
	C95.409225,322.994598 94.615471,323.006592 93.821716,323.018585 
	C93.495453,323.010742 93.248192,322.867004 93.152046,322.111206 
	C92.834305,320.788422 92.623611,319.779419 92.026512,319.120605 
	C86.778427,313.329926 86.457008,309.101776 90.832253,301.851715 
	C93.872787,296.813324 97.489799,295.763672 105.108093,297.817657 
	C105.108093,300.203186 105.108093,302.644440 105.108093,305.085663 
	C105.108093,305.085663 105.040199,305.043884 104.880959,305.263702 
	C104.495155,306.026703 104.268593,306.569855 104.042038,307.113037 
	C104.042030,307.113037 104.043816,307.042084 103.739288,307.071259 
	C99.275749,308.641968 102.356186,310.950897 102.811356,312.981537 
	C102.811356,312.981537 102.974022,313.441101 103.066200,313.983948 
	C106.042389,317.988831 107.719009,315.320007 108.937660,313.090149 
	C109.857635,311.406769 109.998444,309.282043 110.404678,307.336761 
	C111.114510,303.937653 112.629112,302.560486 115.810944,305.038940 
	C115.870613,305.449341 115.930290,305.859711 116.011650,306.581787 
M97.964455,302.693176 
	C96.884712,302.916473 95.156136,302.810577 94.845024,303.423859 
	C93.851219,305.382660 93.051170,307.581177 92.874107,309.744232 
	C92.802002,310.625031 94.523575,311.652679 95.429047,312.613495 
	C96.496704,310.882660 97.844299,309.255035 98.533836,307.384796 
	C98.995239,306.133301 98.521751,304.537170 97.964455,302.693176 
z"/>
<path fill="#2B444F" opacity="1.000000" stroke="none" 
	d="
M377.087219,237.838730 
	C372.973267,239.167511 368.729797,240.194748 364.774536,241.893143 
	C358.235779,244.700974 351.948273,248.095459 345.400452,250.879517 
	C343.966064,251.489410 341.883392,250.574631 339.950012,250.023590 
	C340.300507,248.835068 340.800262,247.984970 341.574738,246.994965 
	C344.136414,246.874817 346.737640,247.628067 348.662567,246.803146 
	C373.084442,236.337326 396.091980,223.455872 416.984619,206.199997 
	C417.993469,206.482056 418.450745,206.724258 418.740417,207.250534 
	C417.397095,209.381348 416.221375,211.228088 415.045654,213.074829 
	C415.045685,213.074844 415.016418,213.007584 414.729980,213.003174 
	C413.293762,213.829407 412.143982,214.660034 410.772644,215.705383 
	C410.358734,216.278061 410.166382,216.636032 409.988586,216.974487 
	C410.003113,216.954987 409.955536,216.944733 409.602509,216.945404 
	C407.489655,218.291595 405.729797,219.637115 403.986786,220.992340 
	C404.003601,221.002045 403.989166,220.965851 403.683228,221.033905 
	C402.902069,221.729538 402.426880,222.357132 401.977417,222.980118 
	C402.003143,222.975510 401.977570,222.929260 401.622650,222.969208 
	C399.726013,223.904770 398.162567,224.765182 396.646332,225.702057 
	C390.119080,229.735397 383.605682,233.791138 377.087219,237.838730 
z"/>
<path fill="#3E829D" opacity="1.000000" stroke="none" 
	d="
M290.001770,172.080139 
	C289.963745,184.438614 289.925690,196.797104 289.751923,209.740082 
	C289.385864,210.564331 289.189606,210.829315 289.027496,211.119568 
	C288.682007,209.756134 288.048065,208.395050 288.036926,207.028885 
	C287.951447,196.550537 288.166901,186.066589 287.899200,175.594345 
	C287.787384,171.219986 289.201019,169.901306 293.583801,169.913757 
	C341.653870,170.050293 389.724884,169.912704 437.794495,170.118362 
	C443.449249,170.142563 447.819031,169.552170 449.563080,163.402390 
	C449.747406,162.752441 450.527283,162.271378 451.030853,161.711960 
	C451.516235,161.999725 452.001587,162.287476 452.486969,162.575241 
	C448.867493,168.948334 445.248047,175.321442 441.022034,181.870483 
	C439.979004,182.011841 439.542542,181.977234 439.106049,181.942627 
	C440.266937,179.849640 441.670044,177.844589 442.476654,175.622971 
	C442.828613,174.653534 441.958344,173.240326 440.965485,171.789429 
	C438.815582,171.367966 437.343384,171.027390 435.871033,171.026413 
	C388.997223,170.995316 342.123444,170.985413 295.249695,171.039841 
	C293.499969,171.041870 291.751068,171.718094 290.001770,172.080139 
z"/>
<path fill="#A5C37F" opacity="1.000000" stroke="none" 
	d="
M157.344543,339.967163 
	C156.964020,338.189117 156.610062,336.146362 156.934799,334.217865 
	C158.155273,326.970245 162.630600,323.711761 170.092392,323.796997 
	C178.071609,323.888153 186.058334,323.421692 194.035385,323.562164 
	C198.107605,323.633881 202.168625,324.935455 206.229691,324.909088 
	C212.530838,324.868164 218.833603,324.240143 225.124863,323.728058 
	C232.785172,323.104553 233.936844,323.934540 236.906570,330.982941 
	C238.362320,334.437988 241.235718,337.495392 238.034943,341.753448 
	C236.617981,338.176666 234.955719,334.319611 234.088913,330.291351 
	C233.378708,326.990906 231.766510,325.836731 228.642807,325.993073 
	C221.391174,326.356079 214.136353,326.920227 206.883194,326.914551 
	C199.297592,326.908600 191.714935,326.238739 184.126266,326.034485 
	C178.470367,325.882202 172.790283,326.276215 167.152313,325.924591 
	C162.883057,325.658295 160.890625,327.480072 160.001511,331.352356 
	C159.351898,334.181519 158.464249,336.956024 157.344543,339.967163 
z"/>
<path fill="#297EA1" opacity="1.000000" stroke="none" 
	d="
M289.295441,211.442169 
	C289.189606,210.829315 289.385864,210.564331 289.798157,210.156860 
	C313.185791,210.006439 336.391541,210.002274 359.597107,210.058060 
	C364.602448,210.070084 364.973450,210.630020 363.203339,214.894318 
	C363.498779,211.289200 360.849640,212.008087 358.818604,212.005661 
	C341.209930,211.984558 323.601227,212.005447 305.992615,211.975220 
	C300.516083,211.965820 295.039795,211.838242 289.295441,211.442169 
z"/>
<path fill="#3E829D" opacity="1.000000" stroke="none" 
	d="
M415.005219,359.825104 
	C381.709534,359.879822 348.413879,359.944397 315.118195,359.984680 
	C300.466034,360.002411 285.813812,359.970673 270.735535,359.630798 
	C270.730896,358.776367 271.152405,358.252563 271.754639,357.825500 
	C271.935364,357.922302 272.294312,358.113770 272.617126,358.311981 
	C274.084564,358.668518 275.229095,358.964539 276.373749,358.965057 
	C304.983307,358.977997 333.592865,358.959778 362.463379,358.932709 
	C363.072540,358.924164 363.420807,358.929962 364.262756,358.956665 
	C376.917114,358.962433 389.077728,358.947296 401.488281,358.915710 
	C402.068634,358.889404 402.399109,358.881775 403.200470,358.905945 
	C407.449280,359.232056 411.227264,359.528595 415.005219,359.825104 
z"/>
<path fill="#3E829D" opacity="1.000000" stroke="none" 
	d="
M357.144501,317.217163 
	C382.716064,317.143494 408.287811,317.098267 433.859009,316.957916 
	C436.850708,316.941467 438.045441,318.060852 438.027863,321.043518 
	C437.959320,332.668335 437.959534,344.294189 438.045105,355.918823 
	C438.067261,358.925720 436.831512,360.082031 433.872070,360.009613 
	C428.893036,359.887787 423.908844,359.976440 418.766785,359.738953 
	C419.752686,359.320831 420.898621,359.140320 422.369385,358.960205 
	C423.128326,358.958344 423.562439,358.956085 424.452759,358.961884 
	C428.583740,358.617920 432.258514,358.265900 436.100677,357.537415 
	C436.460815,345.714569 436.807129,334.266296 436.671936,322.823700 
	C436.652832,321.205566 434.287415,319.615112 432.542786,318.003418 
	C427.742645,317.995911 423.407684,317.996796 418.717773,317.993103 
	C417.888672,317.990509 417.414520,317.992554 416.475464,317.994812 
	C398.515503,317.991547 381.020355,318.014160 363.525513,317.950806 
	C361.397675,317.943115 359.271454,317.472992 357.144501,317.217163 
z"/>
<path fill="#1A4459" opacity="1.000000" stroke="none" 
	d="
M438.844177,182.168213 
	C439.542542,181.977234 439.979004,182.011841 440.744141,182.066299 
	C436.527954,188.712585 432.048370,195.385239 427.404144,201.941269 
	C425.692780,204.357117 423.592957,206.497772 421.352295,208.901321 
	C421.034302,209.038712 421.022186,209.014709 420.913391,208.720398 
	C420.172424,207.939529 419.540222,207.453003 418.908051,206.966461 
	C418.450745,206.724258 417.993469,206.482056 417.314209,206.109772 
	C424.255585,198.117752 431.418945,190.255783 438.844177,182.168213 
M421.496918,205.543365 
	C421.496918,205.543365 421.471588,205.485214 421.496918,205.543365 
z"/>
<path fill="#A5C37F" opacity="1.000000" stroke="none" 
	d="
M157.665451,188.978668 
	C159.148575,195.764526 155.419312,201.731430 153.457642,207.926926 
	C149.461151,220.549042 144.439743,232.847168 139.798355,245.262985 
	C139.586884,245.828644 138.961777,246.239670 138.197571,246.844818 
	C142.115158,234.260544 146.350403,221.549438 150.619736,208.849777 
	C152.826462,202.285553 155.093658,195.741653 157.665451,188.978668 
z"/>
<path fill="#A5C37F" opacity="1.000000" stroke="none" 
	d="
M265.951202,272.618896 
	C263.410889,274.039001 260.652374,275.163788 257.493805,276.280273 
	C262.186218,273.978851 262.035156,270.174988 260.426147,265.655731 
	C257.283020,256.827667 254.259933,247.953262 251.407349,239.027664 
	C250.566833,236.397736 250.466248,233.531342 250.033661,230.341965 
	C251.020966,232.061447 252.157852,234.155914 252.955353,236.372482 
	C257.260986,248.339447 261.482483,260.336700 265.951202,272.618896 
z"/>
<path fill="#A5C37F" opacity="1.000000" stroke="none" 
	d="
M105.437286,304.900635 
	C105.108093,302.644440 105.108093,300.203186 105.108093,297.817657 
	C97.489799,295.763672 93.872787,296.813324 90.832253,301.851715 
	C86.457008,309.101776 86.778427,313.329926 92.026512,319.120605 
	C92.623611,319.779419 92.834305,320.788422 93.096031,321.895935 
	C87.514893,319.383972 84.794098,313.236755 85.997475,306.408264 
	C87.337029,298.806976 93.268486,293.927612 101.103531,293.981598 
	C107.524193,294.025879 108.804710,295.722198 106.801544,301.510956 
	C106.434540,302.571564 106.110405,303.647003 105.437286,304.900635 
z"/>
<path fill="#A5C37F" opacity="1.000000" stroke="none" 
	d="
M76.054733,347.527191 
	C76.054115,348.146881 76.032097,348.341156 75.983772,348.827576 
	C72.707970,344.009552 73.271736,339.691193 78.401764,333.691010 
	C75.179787,332.396820 72.224213,330.987305 69.129723,330.024170 
	C65.442314,328.876434 65.139221,326.598877 66.140755,323.408478 
	C67.196838,320.044250 68.764503,317.811554 72.771706,319.275665 
	C74.729858,319.991119 76.720085,320.618835 78.891342,321.617126 
	C76.782127,321.834686 74.408295,321.340729 72.196892,321.741913 
	C70.723007,322.009369 68.942741,323.304626 68.336266,324.618439 
	C67.971886,325.407837 69.300728,327.568146 70.406349,328.300354 
	C71.847473,329.254669 73.820503,329.407806 75.566406,329.899445 
	C79.551865,331.021667 80.251762,333.138611 78.754425,336.839691 
	C77.437592,340.094574 76.909668,343.668671 76.054733,347.527191 
z"/>
<path fill="#A5C37F" opacity="1.000000" stroke="none" 
	d="
M103.463654,359.894745 
	C103.200340,359.601166 103.418945,359.404541 104.304207,359.114380 
	C116.709496,358.995941 128.466583,359.035278 140.222610,358.942261 
	C142.147324,358.927063 144.067398,358.328796 145.989624,358.000000 
	C151.062134,356.706451 152.862915,353.845093 153.793259,346.577698 
	C153.995026,345.001556 155.382324,343.577179 156.545929,341.990112 
	C156.200714,345.052368 155.671204,348.244385 154.839188,351.355499 
	C152.528427,359.996033 152.478714,360.001251 143.394455,360.004517 
	C130.238785,360.009247 117.083130,359.984039 103.463654,359.894745 
z"/>
<path fill="#A5C37F" opacity="1.000000" stroke="none" 
	d="
M232.083344,176.589752 
	C228.194656,171.433426 222.553085,170.833252 216.278290,170.952118 
	C201.965485,171.223267 187.640701,170.877319 173.328827,171.172623 
	C170.075134,171.239746 166.854172,172.892960 163.254150,173.885742 
	C162.661652,170.973328 164.026199,169.906403 167.007889,169.920044 
	C186.984924,170.011459 206.963577,170.091888 226.939178,169.905106 
	C231.874191,169.858963 230.969864,173.596481 232.083344,176.589752 
z"/>
<path fill="#A5C37F" opacity="1.000000" stroke="none" 
	d="
M271.573853,357.728729 
	C271.152405,358.252563 270.730896,358.776367 270.288177,359.563110 
	C262.131134,359.879211 253.990891,360.084106 245.863480,359.848083 
	C244.374649,359.804840 242.095581,358.258545 241.630569,356.907379 
	C240.059784,352.343109 239.141174,347.554352 237.920853,342.442505 
	C239.218246,344.925323 241.096313,347.694458 241.802444,350.735657 
	C243.079605,356.236206 246.698700,358.476135 251.719437,358.866028 
	C256.015289,359.199646 260.413483,359.371735 264.654846,358.794891 
	C267.006805,358.474976 269.130096,356.473541 271.688843,355.494446 
	C271.872101,356.415466 271.722992,357.072113 271.573853,357.728729 
z"/>
<path fill="#23789F" opacity="1.000000" stroke="none" 
	d="
M356.799530,317.133362 
	C359.271454,317.472992 361.397675,317.943115 363.525513,317.950806 
	C381.020355,318.014160 398.515503,317.991547 416.126892,318.201538 
	C410.845917,318.595886 405.448608,318.783752 399.615295,318.968872 
	C397.434631,318.971558 395.689972,318.977020 393.482239,318.979248 
	C380.362732,318.987213 367.706268,318.998444 355.020691,318.754089 
	C354.969879,318.328369 354.948212,318.158264 354.926514,317.988129 
	C354.945068,317.806702 354.963623,317.625244 355.014038,317.171997 
	C355.515442,316.950012 355.985016,316.999786 356.799530,317.133362 
z"/>
<path fill="#A5C37F" opacity="1.000000" stroke="none" 
	d="
M115.872406,304.660522 
	C112.629112,302.560486 111.114510,303.937653 110.404678,307.336761 
	C109.998444,309.282043 109.857635,311.406769 108.937660,313.090149 
	C107.719009,315.320007 106.042389,317.988831 103.098763,314.225525 
	C107.893501,314.188385 107.976753,311.237244 107.951920,307.476227 
	C107.936287,305.107330 108.683830,301.671967 110.328552,300.577118 
	C113.631035,298.378754 115.041718,301.470398 115.872406,304.660522 
z"/>
<path fill="#A5C37F" opacity="1.000000" stroke="none" 
	d="
M250.051758,229.577423 
	C248.141907,225.779343 245.788025,221.718124 244.320572,217.358536 
	C242.500748,211.952042 241.415024,206.298462 240.024536,200.336609 
	C243.358231,209.675049 246.679596,219.428482 250.051758,229.577423 
z"/>
<path fill="#A5C37F" opacity="1.000000" stroke="none" 
	d="
M134.606262,256.052490 
	C135.173264,257.110413 135.923981,258.545715 135.553833,259.579895 
	C134.003464,263.911469 132.117111,268.122864 129.893982,272.673462 
	C129.251358,272.960907 129.068619,272.953156 128.885864,272.945404 
	C130.682068,267.378723 132.478256,261.812073 134.606262,256.052490 
z"/>
<path fill="#23789F" opacity="1.000000" stroke="none" 
	d="
M422.044556,358.959808 
	C420.898621,359.140320 419.752686,359.320831 418.302185,359.674744 
	C417.247314,359.883911 416.496948,359.919586 415.375916,359.890198 
	C411.227264,359.528595 407.449280,359.232056 403.278961,358.621277 
	C402.966339,357.920410 403.046051,357.533752 403.564545,357.127869 
	C410.017059,357.725708 416.030823,358.342743 422.044556,358.959808 
z"/>
<path fill="#383A36" opacity="1.000000" stroke="none" 
	d="
M460.510376,120.080338 
	C455.871094,122.633041 450.867188,125.197647 445.530640,127.856506 
	C450.180603,125.331253 455.163208,122.711739 460.510376,120.080338 
z"/>
<path fill="#297EA1" opacity="1.000000" stroke="none" 
	d="
M360.666443,218.064728 
	C360.288086,222.401047 359.345947,226.739487 354.238647,228.906891 
	C356.044128,225.384399 358.197296,221.798157 360.666443,218.064728 
z"/>
<path fill="#A1C472" opacity="1.000000" stroke="none" 
	d="
M128.558960,273.146851 
	C129.068619,272.953156 129.251358,272.960907 129.708054,272.979309 
	C128.470154,276.864105 126.958305,280.738251 125.140839,284.792114 
	C125.967506,281.097321 127.099785,277.222809 128.558960,273.146851 
z"/>
<path fill="#A5C37F" opacity="1.000000" stroke="none" 
	d="
M99.976913,330.030029 
	C97.063461,328.948822 94.150002,327.867615 91.093773,326.472717 
	C94.548477,327.207947 98.145943,328.256866 101.946335,329.633972 
	C102.149254,329.962189 101.993507,330.024994 101.611809,330.043030 
	C100.812378,330.050751 100.394646,330.040405 99.976913,330.030029 
z"/>
<path fill="#A5C37F" opacity="1.000000" stroke="none" 
	d="
M240.034729,199.594223 
	C235.896103,198.889282 237.357193,195.402084 236.996826,192.255310 
	C237.996216,194.283829 238.989975,196.747986 240.034729,199.594223 
z"/>
<path fill="#A5C37F" opacity="1.000000" stroke="none" 
	d="
M102.883934,312.599976 
	C102.356186,310.950897 99.275749,308.641968 103.774696,307.073425 
	C103.728600,308.770416 103.342560,310.494446 102.883934,312.599976 
z"/>
<path fill="#A5C37F" opacity="1.000000" stroke="none" 
	d="
M137.615540,247.062759 
	C137.247223,249.237946 136.553284,251.589600 135.493866,254.033997 
	C135.848907,251.830887 136.569397,249.535049 137.615540,247.062759 
z"/>
<path fill="#A5C37F" opacity="1.000000" stroke="none" 
	d="
M236.904449,190.726685 
	C235.928406,189.291077 235.017563,187.486008 234.087036,185.315628 
	C235.034790,186.752609 236.002213,188.554916 236.904449,190.726685 
z"/>
<path fill="#A5C37F" opacity="1.000000" stroke="none" 
	d="
M83.991776,323.657776 
	C82.501068,323.504303 80.833977,323.028107 79.101761,322.227631 
	C80.629570,322.380554 82.222481,322.857788 83.991776,323.657776 
z"/>
<path fill="#383A36" opacity="1.000000" stroke="none" 
	d="
M481.239807,104.763641 
	C480.998596,102.656113 481.004700,100.248032 481.001160,97.388077 
	C481.156738,99.445160 481.321899,101.954124 481.239807,104.763641 
z"/>
<path fill="#383A36" opacity="1.000000" stroke="none" 
	d="
M480.924500,96.704567 
	C479.467316,96.765045 477.879669,96.499573 476.024414,96.091179 
	C477.435883,96.091713 479.114929,96.235161 480.924500,96.704567 
z"/>
<path fill="#A5C37F" opacity="1.000000" stroke="none" 
	d="
M232.897705,180.630569 
	C232.559464,179.872849 232.289200,178.740982 232.039459,177.252472 
	C232.361893,178.016022 232.663803,179.136215 232.897705,180.630569 
z"/>
<path fill="#1A4459" opacity="1.000000" stroke="none" 
	d="
M420.310120,210.848221 
	C419.872650,210.967789 419.686249,210.940414 419.322815,210.586243 
	C419.771240,209.844513 420.396729,209.429611 421.022186,209.014709 
	C421.022186,209.014709 421.034302,209.038712 421.047699,209.049194 
	C420.894470,209.606873 420.727844,210.154083 420.310120,210.848221 
z"/>
<path fill="#A5C37F" opacity="1.000000" stroke="none" 
	d="
M162.616974,174.070740 
	C162.796967,174.769119 162.656540,175.628235 162.330200,176.763580 
	C162.195038,176.103683 162.245789,175.167587 162.616974,174.070740 
z"/>
<path fill="#A5C37F" opacity="1.000000" stroke="none" 
	d="
M94.001503,323.334045 
	C94.615471,323.006592 95.409225,322.994598 96.598183,322.981323 
	C96.993385,322.980042 96.999565,323.399170 97.002548,323.608704 
	C96.064110,323.762024 95.122704,323.705750 94.001503,323.334045 
z"/>
<path fill="#A5C37F" opacity="1.000000" stroke="none" 
	d="
M158.656921,185.969513 
	C158.784103,186.247406 158.638641,186.640610 158.308929,187.094574 
	C158.211212,186.798492 158.297745,186.441650 158.656921,185.969513 
z"/>
<path fill="#383A36" opacity="1.000000" stroke="none" 
	d="
M472.743988,97.022507 
	C472.541534,97.281960 472.043610,97.604744 471.246368,97.968163 
	C471.447571,97.701141 471.948029,97.393494 472.743988,97.022507 
z"/>
<path fill="#A5C37F" opacity="1.000000" stroke="none" 
	d="
M104.329590,306.978638 
	C104.268593,306.569855 104.495155,306.026703 104.920586,305.259460 
	C104.952019,305.638367 104.784584,306.241302 104.329590,306.978638 
z"/>
<path fill="#383A36" opacity="1.000000" stroke="none" 
	d="
M469.824890,100.018005 
	C469.805115,100.367607 469.592255,100.978523 469.172791,101.842789 
	C469.188080,101.490532 469.409943,100.884926 469.824890,100.018005 
z"/>
<path fill="#A5C37F" opacity="1.000000" stroke="none" 
	d="
M87.017181,324.685944 
	C86.598557,324.818542 86.024818,324.654236 85.200981,324.320892 
	C85.587944,324.230896 86.225006,324.309967 87.017181,324.685944 
z"/>
<path fill="#A5C37F" opacity="1.000000" stroke="none" 
	d="
M100.993500,359.286896 
	C101.185036,359.171875 101.434509,359.337860 101.835693,359.677551 
	C101.689171,359.736176 101.377174,359.641693 100.993500,359.286896 
z"/>
<path fill="#383A36" opacity="1.000000" stroke="none" 
	d="
M473.730896,96.159988 
	C473.794434,96.327316 473.596924,96.569649 473.147034,96.898895 
	C473.090485,96.741501 473.282227,96.491226 473.730896,96.159988 
z"/>
<path fill="#383A36" opacity="1.000000" stroke="none" 
	d="
M470.820862,98.081329 
	C470.879333,98.246147 470.679749,98.495949 470.225189,98.833160 
	C470.153809,98.658897 470.351318,98.407478 470.820862,98.081329 
z"/>
<path fill="#383A36" opacity="1.000000" stroke="none" 
	d="
M480.908020,105.549057 
	C480.753876,105.533745 480.764343,105.329681 480.971863,105.046021 
	C481.043610,104.956261 480.947327,105.350159 480.908020,105.549057 
z"/>
<path fill="#297EA1" opacity="1.000000" stroke="none" 
	d="
M362.725037,215.024536 
	C362.855530,215.258774 362.667969,215.516449 362.195862,215.838562 
	C362.150879,215.672134 362.316101,215.387131 362.725037,215.024536 
z"/>
<path fill="#297EA1" opacity="1.000000" stroke="none" 
	d="
M361.699768,216.055206 
	C361.880890,216.282776 361.737244,216.540573 361.358032,216.911194 
	C361.277374,216.750565 361.361542,216.437698 361.699768,216.055206 
z"/>
<path fill="#A5C37F" opacity="1.000000" stroke="none" 
	d="
M104.995804,330.721039 
	C104.904221,330.977905 104.722656,330.985443 104.268341,331.000458 
	C103.995605,331.007965 103.989227,330.595215 103.984863,330.388855 
	C104.288948,330.278900 104.597382,330.375336 104.995804,330.721039 
z"/>
<path fill="#A5C37F" opacity="1.000000" stroke="none" 
	d="
M90.023865,325.738586 
	C89.851707,325.841217 89.579575,325.674011 89.136581,325.330811 
	C89.272736,325.279602 89.592133,325.384247 90.023865,325.738586 
z"/>
<path fill="#000000" opacity="1.000000" stroke="none" 
	d="
M184.821716,248.945953 
	C184.882706,248.535446 184.943695,248.124939 185.377029,247.218323 
	C189.516571,233.597717 193.283752,220.473251 197.315262,206.427872 
	C199.452271,213.570038 201.311859,219.785065 203.102356,226.378220 
	C203.688965,228.573959 204.344635,230.391571 205.000320,232.209198 
	C205.000320,232.209198 205.009537,232.572601 205.018936,233.143188 
	C209.914886,249.540634 214.818771,265.362244 219.636963,281.209900 
	C219.878433,282.004089 219.377365,283.024017 218.840469,284.081238 
	C216.573746,284.513153 214.688568,284.802734 212.373688,285.072693 
	C202.106339,285.683136 192.265961,286.275330 182.434494,286.990143 
	C181.167221,287.082245 179.946136,287.809570 178.703659,288.242645 
	C177.176651,288.242645 175.649628,288.242645 173.122513,288.242645 
	C173.411591,285.876160 173.718369,283.364990 174.401001,280.296875 
	C177.877579,269.839050 180.978287,259.938110 184.078979,250.037186 
	C184.078979,250.037186 184.015488,250.021286 184.274811,249.962845 
	C184.630005,249.584915 184.725861,249.265442 184.821716,248.945953 
z"/>
<path fill="#121512" opacity="1.000000" stroke="none" 
	d="
M212.803406,285.092285 
	C214.688568,284.802734 216.573746,284.513153 219.154526,284.191406 
	C221.907578,283.768951 223.965012,283.378693 226.022446,282.988403 
	C228.112228,282.730011 230.202026,282.471619 232.845276,282.351959 
	C233.981628,282.261230 234.564514,282.031769 235.147400,281.802307 
	C235.880142,281.631989 236.612900,281.461639 237.726135,281.311523 
	C243.671997,280.856659 249.319397,280.831573 254.789612,279.834442 
	C293.615814,272.757172 331.334839,262.121765 366.678162,244.114822 
	C370.081512,242.380844 373.308807,240.301331 376.852539,238.110474 
	C383.605682,233.791138 390.119080,229.735397 396.646332,225.702057 
	C398.162567,224.765182 399.726013,223.904770 401.583191,223.312271 
	C401.566589,224.710938 401.234558,225.806503 400.557556,226.969482 
	C398.695190,228.601151 397.177704,230.165390 395.306519,231.787476 
	C389.902649,235.169479 384.750153,238.350479 379.835144,241.863693 
	C375.985382,244.615463 372.429749,247.778687 368.375397,250.813324 
	C367.041199,251.108215 366.002747,251.195770 365.119781,251.612671 
	C352.681732,257.485657 340.243683,263.359985 327.878662,269.383881 
	C326.758972,269.929382 326.142303,271.507416 325.239746,272.730896 
	C325.187469,272.855865 324.945953,272.978729 324.660614,273.025391 
	C323.905121,273.394196 323.434937,273.716309 322.606995,274.112274 
	C319.491364,275.286469 316.733551,276.386810 314.280945,277.365356 
	C315.433319,280.096161 316.235718,281.997589 316.987427,284.279968 
	C315.051331,287.586426 313.165863,290.511932 311.093323,293.087646 
	C309.543152,289.179749 308.255676,285.589539 306.767334,282.084595 
	C306.362244,281.130707 305.409668,279.806000 304.609039,279.732422 
	C301.807709,279.475067 298.915985,279.378784 296.145447,279.796906 
	C291.729370,280.463287 287.387451,281.613281 283.005280,282.515533 
	C280.713318,282.987427 279.841522,283.987854 279.117950,286.593475 
	C277.995331,290.636108 275.242767,294.226074 273.181183,298.007965 
	C271.880554,294.244171 270.579926,290.480408 269.190582,286.459869 
	C242.128387,290.294769 215.077103,291.704285 187.749664,289.680847 
	C189.995651,288.918304 192.385834,288.403625 194.794983,288.002869 
	C200.793182,287.005005 206.800034,286.059082 212.803406,285.092285 
M309.528534,283.508087 
	C309.528534,283.508087 309.485382,283.524445 309.528534,283.508087 
z"/>
<path fill="#000000" opacity="1.000000" stroke="none" 
	d="
M273.112610,298.379761 
	C275.242767,294.226074 277.995331,290.636108 279.117950,286.593475 
	C279.841522,283.987854 280.713318,282.987427 283.005280,282.515533 
	C287.387451,281.613281 291.729370,280.463287 296.145447,279.796906 
	C298.915985,279.378784 301.807709,279.475067 304.609039,279.732422 
	C305.409668,279.806000 306.362244,281.130707 306.767334,282.084595 
	C308.255676,285.589539 309.543152,289.179749 311.039734,293.425171 
	C310.481171,295.218140 309.793945,296.326782 309.096344,297.428925 
	C302.054413,308.554169 295.010803,319.678284 287.709717,330.913574 
	C286.994781,331.324768 286.537750,331.625092 285.897034,331.597229 
	C283.163055,324.482208 280.612793,317.695404 278.062531,310.908569 
	C276.389709,306.856232 274.716888,302.803894 273.112610,298.379761 
M285.529480,283.498535 
	C285.529480,283.498535 285.487000,283.513763 285.529480,283.498535 
z"/>
<path fill="#A1C472" opacity="1.000000" stroke="none" 
	d="
M203.171448,226.000107 
	C201.311859,219.785065 199.452271,213.570038 197.315262,206.427872 
	C193.283752,220.473251 189.516571,233.597717 185.413574,246.907822 
	C184.852478,246.003433 184.195709,244.789139 184.468384,243.842575 
	C187.299042,234.016083 190.307571,224.241058 193.204697,214.433411 
	C194.429321,210.287643 195.506912,206.098434 196.651337,201.928970 
	C197.250214,201.947205 197.849075,201.965439 198.447952,201.983658 
	C199.655792,206.154968 200.972458,210.298691 202.038055,214.506012 
	C202.940582,218.069458 203.552673,221.706451 203.940521,225.655975 
	C203.587784,226.001038 203.171463,226.000107 203.171448,226.000107 
z"/>
<path fill="#A5C37F" opacity="1.000000" stroke="none" 
	d="
M225.771332,282.757843 
	C223.965012,283.378693 221.907578,283.768951 219.536087,284.049011 
	C219.377365,283.024017 219.878433,282.004089 219.636963,281.209900 
	C214.818771,265.362244 209.914886,249.540634 205.088745,233.310989 
	C206.663162,235.971069 208.586288,238.903229 209.614395,242.121307 
	C212.691986,251.754562 215.341507,261.523651 218.318771,271.190277 
	C219.669388,275.575439 220.583405,280.364929 225.771332,282.757843 
z"/>
<path fill="#3E829D" opacity="1.000000" stroke="none" 
	d="
M286.080719,331.925415 
	C286.537750,331.625092 286.994781,331.324768 287.723206,331.285461 
	C288.022156,332.041016 288.049652,332.535522 288.063721,333.032867 
	C288.050323,333.035736 288.031189,333.055298 287.831055,333.303101 
	C287.436920,334.366241 287.242950,335.181610 286.957458,336.338257 
	C285.845245,338.332123 284.750580,339.944122 283.817474,341.644806 
	C280.851379,347.050690 277.945435,352.489594 274.672485,357.937256 
	C273.650604,358.010468 272.972473,358.062134 272.294312,358.113770 
	C272.294312,358.113770 271.935364,357.922302 271.754608,357.825500 
	C271.722992,357.072113 271.872101,356.415466 272.036316,355.423035 
	C272.051422,355.087250 272.102753,355.037994 272.366394,354.836609 
	C274.470154,351.453552 276.310303,348.271851 278.150452,345.090149 
	C278.150452,345.090149 278.064117,345.111755 278.392822,345.050323 
	C279.131866,344.353577 279.542175,343.718262 279.952515,343.082947 
	C280.283447,342.604126 280.614380,342.125275 281.278015,341.189270 
	C282.089935,339.813965 282.569183,338.895874 283.048431,337.977753 
	C283.048431,337.977753 283.196960,337.764435 283.503326,337.459167 
	C284.566711,335.411072 285.323730,333.668243 286.080719,331.925415 
z"/>
<path fill="#A1C472" opacity="1.000000" stroke="none" 
	d="
M183.723740,250.123535 
	C180.978287,259.938110 177.877579,269.839050 174.454163,279.894592 
	C175.384735,275.199799 176.697495,270.364746 177.871368,265.496216 
	C178.721191,261.971558 179.161972,258.332977 180.229568,254.882706 
	C180.760818,253.165726 182.290482,251.757675 183.723740,250.123535 
z"/>
<path fill="#383A36" opacity="1.000000" stroke="none" 
	d="
M212.373688,285.072662 
	C206.800034,286.059082 200.793182,287.005005 194.794983,288.002869 
	C192.385834,288.403625 189.995651,288.918304 187.301697,289.618866 
	C184.392181,289.523773 181.777802,289.190948 178.933533,288.550385 
	C179.946136,287.809570 181.167221,287.082245 182.434494,286.990143 
	C192.265961,286.275330 202.106339,285.683136 212.373688,285.072662 
z"/>
<path fill="#A5C37F" opacity="1.000000" stroke="none" 
	d="
M285.897034,331.597229 
	C285.323730,333.668243 284.566711,335.411072 283.486176,337.330322 
	C281.664520,330.418030 280.161255,323.330383 278.672211,316.239777 
	C278.339691,314.656433 278.057159,313.062622 277.907104,311.191101 
	C280.612793,317.695404 283.163055,324.482208 285.897034,331.597229 
z"/>
<path fill="#9ECC67" opacity="1.000000" stroke="none" 
	d="
M145.522034,357.999146 
	C144.067398,358.328796 142.147324,358.927063 140.222610,358.942261 
	C128.466583,359.035278 116.709496,358.995941 104.486435,358.989929 
	C104.020119,358.979187 104.012314,358.489044 104.010971,358.243896 
	C117.691238,357.998596 131.372849,357.998444 145.522034,357.999146 
z"/>
<path fill="#A5C37F" opacity="1.000000" stroke="none" 
	d="
M277.840729,345.239868 
	C276.310303,348.271851 274.470154,351.453552 272.348083,354.806122 
	C273.887787,351.781158 275.709381,348.585358 277.840729,345.239868 
z"/>
<path fill="#A5C37F" opacity="1.000000" stroke="none" 
	d="
M203.102371,226.378220 
	C203.171463,226.000107 203.587784,226.001038 203.795990,226.000671 
	C204.239929,226.191833 204.456818,226.402771 204.719482,226.927887 
	C204.686752,227.510483 204.747040,227.766434 204.965012,227.990524 
	C204.965012,227.990524 204.980316,228.011612 204.988022,228.266891 
	C204.995728,228.522171 205.009216,229.009079 205.009216,229.009079 
	C205.015579,229.808334 205.021927,230.607574 205.014313,231.808014 
	C204.344635,230.391571 203.688965,228.573959 203.102371,226.378220 
z"/>
<path fill="#A5C37F" opacity="1.000000" stroke="none" 
	d="
M282.750427,338.045410 
	C282.569183,338.895874 282.089935,339.813965 281.341003,340.900330 
	C281.531677,340.083374 281.992035,339.098236 282.750427,338.045410 
z"/>
<path fill="#A5C37F" opacity="1.000000" stroke="none" 
	d="
M279.669037,343.167969 
	C279.542175,343.718262 279.131866,344.353577 278.434692,345.065491 
	C278.560394,344.512390 278.972992,343.882690 279.669037,343.167969 
z"/>
<path fill="#383A36" opacity="1.000000" stroke="none" 
	d="
M234.880280,281.701569 
	C234.564514,282.031769 233.981628,282.261230 233.241058,282.348572 
	C233.593307,282.004547 234.103226,281.802704 234.880280,281.701569 
z"/>
<path fill="#A1C472" opacity="1.000000" stroke="none" 
	d="
M204.962463,227.739624 
	C204.747040,227.766434 204.686752,227.510483 204.861786,227.105011 
	C204.946259,227.154495 204.953094,227.321625 204.962463,227.739624 
z"/>
<path fill="#A1C472" opacity="1.000000" stroke="none" 
	d="
M205.088440,228.895157 
	C205.009216,229.009079 204.995728,228.522171 204.992889,228.278976 
	C205.209869,228.251022 205.269058,228.499512 205.088440,228.895157 
z"/>
<path fill="#A1C472" opacity="1.000000" stroke="none" 
	d="
M184.663788,249.118423 
	C184.725861,249.265442 184.630005,249.584915 184.275787,249.995544 
	C184.149933,249.802841 184.312744,249.537567 184.663788,249.118423 
z"/>
<path fill="#297EA1" opacity="1.000000" stroke="none" 
	d="
M290.470581,172.069382 
	C291.751068,171.718094 293.499969,171.041870 295.249695,171.039841 
	C342.123444,170.985413 388.997223,170.995316 435.871033,171.026413 
	C437.343384,171.027390 438.815582,171.367966 440.646271,171.752350 
	C390.982941,171.989182 340.961151,172.023895 290.470581,172.069382 
z"/>
<path fill="#000000" opacity="1.000000" stroke="none" 
	d="
M485.995422,116.003014 
	C485.990814,116.006157 486.054626,116.089149 486.030548,116.039833 
	C486.006470,115.990517 486.000000,115.999870 485.995422,116.003014 
z"/>
<path fill="#000000" opacity="1.000000" stroke="none" 
	d="
M470.498291,129.493546 
	C470.519501,129.485809 470.477081,129.501282 470.498291,129.493546 
z"/>
<path fill="#000000" opacity="1.000000" stroke="none" 
	d="
M96.006546,340.661774 
	C96.111992,341.419739 96.052757,341.851593 95.956863,342.609375 
	C95.920204,342.935333 95.970650,342.974670 95.635025,343.124268 
	C91.977440,346.938354 89.321175,347.098053 85.052689,343.889923 
	C85.052689,343.889923 85.048546,343.959259 85.028206,343.652344 
	C84.697342,342.874603 84.386818,342.403809 84.076294,341.932983 
	C86.094139,335.368561 90.300240,334.797546 96.006546,340.661774 
z"/>
<path fill="#A5C37F" opacity="1.000000" stroke="none" 
	d="
M85.075188,344.282623 
	C89.321175,347.098053 91.977440,346.938354 95.629593,343.092773 
	C94.837494,344.577332 93.959801,347.357117 92.540283,347.668762 
	C89.864334,348.256195 86.047531,349.342926 85.075188,344.282623 
z"/>
<path fill="#A5C37F" opacity="1.000000" stroke="none" 
	d="
M83.949738,342.142517 
	C84.386818,342.403809 84.697342,342.874603 85.062897,343.650574 
	C84.686340,343.421143 84.254761,342.886627 83.949738,342.142517 
z"/>
<path fill="#A1C472" opacity="1.000000" stroke="none" 
	d="
M100.058258,330.252136 
	C100.394646,330.040405 100.812378,330.050751 101.540421,330.087219 
	C101.280350,330.233612 100.709969,330.353912 100.058258,330.252136 
z"/>
<path fill="#000000" opacity="1.000000" stroke="none" 
	d="
M290.520569,266.774597 
	C289.240997,261.019104 295.558136,259.367767 296.316895,254.568192 
	C296.722748,254.593964 297.128601,254.619736 297.534424,254.645508 
	C298.303406,256.957428 299.072388,259.269348 300.016357,261.872437 
	C297.088562,263.702820 293.985809,265.242065 290.520569,266.774597 
z"/>
<path fill="#2092C6" opacity="1.000000" stroke="none" 
	d="
M275.016235,357.915710 
	C277.945435,352.489594 280.851379,347.050690 283.817474,341.644806 
	C284.750580,339.944122 285.845245,338.332123 287.142700,336.082550 
	C287.623322,334.675446 287.827271,333.865387 288.031189,333.055298 
	C288.031189,333.055298 288.050323,333.035736 288.387146,332.940643 
	C291.507812,329.027100 294.464996,325.321777 297.044067,321.369659 
	C305.922852,307.763885 314.593811,294.022217 323.508850,280.440552 
	C326.508881,275.870117 329.979370,272.117493 335.855133,270.372284 
	C343.112885,268.216583 350.010315,264.705383 356.838837,261.326050 
	C359.158539,260.178040 360.796509,257.652527 362.779358,255.759064 
	C362.812714,255.761642 362.830811,255.826019 363.215942,255.851074 
	C366.658630,253.819778 369.716156,251.763428 372.819519,249.712128 
	C372.865356,249.717194 372.783234,249.759201 373.136780,249.787659 
	C374.279480,249.134613 375.068665,248.453094 375.878906,247.807007 
	C375.899963,247.842422 375.818359,247.830994 376.203583,247.853867 
	C384.306488,245.300705 390.896454,241.256058 394.903625,233.862946 
	C394.920410,233.899841 394.842773,233.876602 395.220093,233.885010 
	C397.358704,232.215897 399.119995,230.538361 400.904114,228.920364 
	C400.926971,228.979904 400.849609,228.878418 401.222382,228.884689 
	C402.580933,227.784882 403.566711,226.678818 404.631561,225.600601 
	C404.710632,225.628448 404.652832,225.785858 404.892883,225.655640 
	C405.343292,225.233124 405.553650,224.940826 405.666809,224.612457 
	C405.569611,224.576385 405.597076,224.370895 405.597076,224.370880 
	C406.871277,224.538864 408.145447,224.706833 409.879486,224.935425 
	C409.350006,226.479065 409.169891,227.832230 408.491852,228.855438 
	C399.532593,242.375443 390.425140,255.797684 381.525970,269.356750 
	C377.349823,275.719635 373.623779,282.376160 369.541901,288.803162 
	C365.862640,294.596191 362.092041,300.340729 358.094208,305.914764 
	C357.168610,307.205292 355.154510,307.715088 353.257080,309.116272 
	C349.920929,316.286072 343.904999,318.351135 335.346954,316.381287 
	C331.777893,315.559814 327.887115,315.560730 324.219086,315.935699 
	C321.514709,316.212128 320.244141,318.242767 321.966339,321.389984 
	C321.933167,324.819275 321.982635,327.884308 322.032043,331.335693 
	C322.407837,332.959290 322.399445,334.825317 323.223602,335.328949 
	C327.651489,338.034698 326.804443,342.266266 327.089722,346.344360 
	C327.247162,348.594543 328.315460,350.781006 328.979248,353.326721 
	C328.994141,354.097900 329.002930,354.538574 329.008362,355.344788 
	C329.001892,356.438324 328.998749,357.166229 328.596069,357.910889 
	C327.130463,357.918030 326.064423,357.908417 324.926605,357.524506 
	C324.495178,356.622498 324.148865,355.645691 323.773865,355.634552 
	C318.226074,355.469849 312.672089,355.340149 307.126556,355.479675 
	C306.401337,355.497894 305.714813,357.054138 304.541382,357.915405 
	C294.387024,357.927094 284.701630,357.921417 275.016235,357.915710 
z"/>
<path fill="#2191C4" opacity="1.000000" stroke="none" 
	d="
M322.049011,321.025696 
	C320.244141,318.242767 321.514709,316.212128 324.219086,315.935699 
	C327.887115,315.560730 331.777893,315.559814 335.346954,316.381287 
	C343.904999,318.351135 349.920929,316.286072 352.955780,309.293884 
	C353.971710,309.079926 354.904724,309.220520 356.197144,309.415253 
	C354.859589,311.754303 353.594299,313.670776 352.712158,315.749817 
	C352.527344,316.185547 353.753479,317.219971 354.627991,317.983307 
	C354.948212,318.158264 354.969879,318.328369 354.780853,318.844086 
	C356.003967,320.799011 357.437805,322.408356 358.921814,324.417542 
	C358.688965,326.860107 358.406006,328.902893 357.899048,331.292999 
	C357.528168,335.467499 357.381256,339.294617 357.225983,343.496826 
	C357.211945,344.871948 357.206268,345.872040 357.217499,347.216370 
	C358.162262,348.699371 359.090149,349.838043 360.101929,351.305725 
	C362.159119,353.737579 364.132477,355.840454 365.797729,358.021027 
	C364.916077,358.377747 364.342560,358.656769 363.769043,358.935760 
	C363.420807,358.929962 363.072540,358.924164 362.083618,358.724640 
	C354.945618,358.340546 348.448364,358.150146 341.969727,357.537415 
	C341.974304,348.726959 341.960175,340.338806 341.970886,331.652252 
	C342.016998,330.954102 342.038269,330.554321 342.442566,330.102783 
	C344.865906,329.474121 346.906219,328.897217 349.012756,328.301605 
	C348.140137,326.065826 347.566345,324.595642 346.955139,322.753418 
	C346.141937,321.688141 345.359253,320.387146 344.591370,320.395874 
	C337.075836,320.480896 329.562775,320.784363 322.049011,321.025696 
z"/>
<path fill="#072533" opacity="1.000000" stroke="none" 
	d="
M400.902496,226.902069 
	C401.234558,225.806503 401.566589,224.710938 401.938110,223.272308 
	C401.977570,222.929260 402.003143,222.975510 402.274872,222.896698 
	C403.027466,222.200546 403.508331,221.583206 403.989166,220.965851 
	C403.989166,220.965851 404.003601,221.002045 404.348877,220.989685 
	C406.071014,220.591995 407.447876,220.206665 408.923950,219.918365 
	C409.023132,220.015411 409.222260,220.208786 409.222260,220.208786 
	C408.108032,221.414993 406.993805,222.621201 405.738342,224.099152 
	C405.597076,224.370895 405.569611,224.576385 405.381165,224.684937 
	C405.012787,225.124298 404.832825,225.455078 404.652832,225.785858 
	C404.652832,225.785858 404.710632,225.628448 404.345886,225.694672 
	C403.123688,226.306961 402.266235,226.853058 401.282166,227.274933 
	C401.155518,227.150711 400.902496,226.902069 400.902496,226.902069 
z"/>
<path fill="#072533" opacity="1.000000" stroke="none" 
	d="
M420.913391,208.720398 
	C420.396729,209.429611 419.771240,209.844513 419.044373,210.537933 
	C417.867706,211.569946 416.792450,212.323456 415.381409,213.075897 
	C416.221375,211.228088 417.397095,209.381348 418.740417,207.250534 
	C419.540222,207.453003 420.172424,207.939529 420.913391,208.720398 
z"/>
<path fill="#072533" opacity="1.000000" stroke="none" 
	d="
M410.994202,215.490662 
	C412.143982,214.660034 413.293762,213.829407 414.759399,213.025085 
	C413.709442,214.763626 412.343567,216.475861 410.541534,218.144745 
	C410.105377,218.101410 409.914093,217.944397 409.934448,217.694885 
	C409.955078,217.278488 409.955322,217.111603 409.955536,216.944733 
	C409.955536,216.944733 410.003113,216.954987 410.200684,216.755493 
	C410.596893,216.200867 410.795532,215.845749 410.994202,215.490662 
z"/>
<path fill="#072533" opacity="1.000000" stroke="none" 
	d="
M410.200500,218.180557 
	C410.098816,218.801102 409.902039,219.342499 409.463745,220.046356 
	C409.222260,220.208786 409.023132,220.015411 409.044983,219.675812 
	C409.349243,218.872284 409.631683,218.408340 409.914124,217.944397 
	C409.914093,217.944397 410.105377,218.101410 410.200500,218.180557 
z"/>
<path fill="#A1C472" opacity="1.000000" stroke="none" 
	d="
M98.215530,302.894226 
	C98.521751,304.537170 98.995239,306.133301 98.533836,307.384796 
	C97.844299,309.255035 96.496704,310.882660 95.429047,312.613495 
	C94.523575,311.652679 92.802002,310.625031 92.874107,309.744232 
	C93.051170,307.581177 93.851219,305.382660 94.845024,303.423859 
	C95.156136,302.810577 96.884712,302.916473 98.215530,302.894226 
z"/>
<path fill="#121512" opacity="1.000000" stroke="none" 
	d="
M409.934479,217.694901 
	C409.631683,218.408340 409.349243,218.872284 408.945770,219.578766 
	C407.447876,220.206665 406.071014,220.591995 404.332062,220.979980 
	C405.729797,219.637115 407.489655,218.291595 409.602509,216.945404 
	C409.955322,217.111603 409.955078,217.278488 409.934479,217.694901 
z"/>
<path fill="#121512" opacity="1.000000" stroke="none" 
	d="
M403.683228,221.033905 
	C403.508331,221.583206 403.027466,222.200546 402.249146,222.901306 
	C402.426880,222.357132 402.902069,221.729538 403.683228,221.033905 
z"/>
<path fill="#121512" opacity="1.000000" stroke="none" 
	d="
M410.772644,215.705368 
	C410.795532,215.845749 410.596893,216.200867 410.186157,216.774994 
	C410.166382,216.636032 410.358734,216.278061 410.772644,215.705368 
z"/>
<path fill="#2092C6" opacity="1.000000" stroke="none" 
	d="
M403.125763,357.147125 
	C403.046051,357.533752 402.966339,357.920410 402.808105,358.591705 
	C402.399109,358.881775 402.068634,358.889404 401.103333,358.713440 
	C395.631805,358.357208 390.795135,358.186829 386.042847,357.686005 
	C386.762573,355.913727 387.397888,354.471924 388.333984,352.908630 
	C389.063416,351.188080 389.492096,349.588989 389.937653,347.533081 
	C389.991302,343.733154 390.028107,340.389984 390.378479,336.891846 
	C391.286285,334.484711 392.042572,332.260620 392.437561,329.974091 
	C393.066711,326.332062 393.455139,322.648499 393.945343,318.982483 
	C395.689972,318.977020 397.434631,318.971558 399.736359,319.273163 
	C401.230194,321.195587 402.786682,322.742523 402.974091,324.440582 
	C403.358765,327.925842 403.009918,331.492096 402.788086,335.282593 
	C403.015564,336.685303 403.417969,337.830444 403.836426,339.354980 
	C403.840027,340.493347 403.827606,341.252350 403.538574,342.090027 
	C402.749603,342.670380 402.237213,343.172058 401.724823,343.673706 
	C402.417908,344.117493 403.110992,344.561279 403.827698,345.406464 
	C403.833710,346.878967 403.816101,347.950073 403.594177,349.103699 
	C403.519958,349.782562 403.650055,350.378906 403.801331,351.363373 
	C403.590302,353.550018 403.358032,355.348572 403.125763,357.147125 
z"/>
<path fill="#23789F" opacity="1.000000" stroke="none" 
	d="
M341.951080,357.959747 
	C348.448364,358.150146 354.945618,358.340546 361.822662,358.739014 
	C333.592865,358.959778 304.983307,358.977997 276.373749,358.965057 
	C275.229095,358.964539 274.084564,358.668518 272.617126,358.311981 
	C272.972473,358.062134 273.650604,358.010468 274.672485,357.937286 
	C284.701630,357.921417 294.387024,357.927094 305.007690,357.943054 
	C312.294769,357.935150 318.646576,357.916992 324.998383,357.898834 
	C326.064423,357.908417 327.130463,357.918030 328.900085,357.821045 
	C330.420776,357.485779 331.237854,357.257111 332.441956,357.021240 
	C335.869659,357.329315 338.910370,357.644531 341.951080,357.959747 
z"/>
<path fill="#23789F" opacity="1.000000" stroke="none" 
	d="
M385.958496,358.016449 
	C390.795135,358.186829 395.631805,358.357208 400.853394,358.729858 
	C389.077728,358.947296 376.917114,358.962433 364.262756,358.956665 
	C364.342560,358.656769 364.916077,358.377747 366.184265,357.934143 
	C371.886230,357.482300 376.893555,357.195007 382.192993,357.121277 
	C383.642914,357.562073 384.800690,357.789276 385.958496,358.016449 
z"/>
<path fill="#2E8AB1" opacity="1.000000" stroke="none" 
	d="
M402.963013,335.024994 
	C403.009918,331.492096 403.358765,327.925842 402.974091,324.440582 
	C402.786682,322.742523 401.230194,321.195587 400.172394,319.275940 
	C405.448608,318.783752 410.845917,318.595886 416.591797,318.201294 
	C417.414520,317.992554 417.888672,317.990509 419.061279,318.199738 
	C424.175842,318.277954 428.591888,318.144897 433.007965,318.011841 
	C434.287415,319.615112 436.652832,321.205566 436.671936,322.823700 
	C436.807129,334.266296 436.460815,345.714569 435.679108,357.559235 
	C431.392273,358.289581 427.694427,358.621674 423.996552,358.953796 
	C423.562439,358.956085 423.128326,358.958344 422.369385,358.960205 
	C416.030823,358.342743 410.017059,357.725708 403.564545,357.127869 
	C403.358032,355.348572 403.590302,353.550018 403.833984,351.038757 
	C403.829742,349.891083 403.814087,349.456146 403.798462,349.021179 
	C403.816101,347.950073 403.833710,346.878967 403.863098,345.032715 
	C403.854950,343.508820 403.835052,342.760071 403.815186,342.011353 
	C403.827606,341.252350 403.840027,340.493347 403.863220,339.007385 
	C403.570343,337.195282 403.266693,336.110138 402.963013,335.024994 
M404.992126,339.494568 
	C404.993866,342.988281 404.993896,346.482025 404.997894,349.975739 
	C405.000763,352.491638 404.601196,355.097534 408.585510,355.005310 
	C412.578766,354.912872 411.862213,352.184845 412.047150,349.764313 
	C412.217743,347.531281 412.559540,345.311371 412.825928,343.085663 
	C413.301208,343.089417 413.776489,343.093170 414.251770,343.096924 
	C415.944214,346.024078 417.907501,348.831512 419.266602,351.906036 
	C421.382782,356.693146 425.037384,354.671936 429.067963,354.869110 
	C427.107971,351.739532 425.761322,349.098999 423.952148,346.826691 
	C421.771149,344.087311 421.330231,342.446991 424.973083,340.331543 
	C428.479980,338.294983 429.586517,334.473907 428.669769,330.377991 
	C427.812317,326.546814 425.581390,323.500977 421.633240,323.147064 
	C416.251862,322.664703 410.794830,323.026733 404.985443,323.026733 
	C404.985443,328.576904 404.985443,333.537750 404.992126,339.494568 
z"/>
<path fill="#23789F" opacity="1.000000" stroke="none" 
	d="
M424.452759,358.961853 
	C427.694427,358.621674 431.392273,358.289581 435.511719,357.935669 
	C432.258514,358.265900 428.583740,358.617920 424.452759,358.961853 
z"/>
<path fill="#23789F" opacity="1.000000" stroke="none" 
	d="
M432.542786,318.003418 
	C428.591888,318.144897 424.175842,318.277954 419.416260,318.204346 
	C423.407684,317.996796 427.742645,317.995911 432.542786,318.003418 
z"/>
<path fill="#072533" opacity="1.000000" stroke="none" 
	d="
M421.484253,205.514282 
	C421.471588,205.485214 421.496918,205.543365 421.484253,205.514282 
z"/>
<path fill="#2E8AB1" opacity="1.000000" stroke="none" 
	d="
M393.482239,318.979248 
	C393.455139,322.648499 393.066711,326.332062 392.437561,329.974091 
	C392.042572,332.260620 391.286285,334.484711 390.354706,336.427856 
	C389.725677,332.073639 389.433990,328.028381 388.895172,323.640747 
	C386.564087,323.298309 384.480103,323.298309 381.931763,323.298309 
	C381.931763,329.532745 382.012268,335.503235 381.909760,341.470642 
	C381.800781,347.814514 379.955048,349.945526 374.908325,349.931946 
	C369.285400,349.916809 368.130219,348.541595 368.088318,341.617615 
	C368.051392,335.514465 368.080597,329.410858 368.080597,322.467560 
	C364.479431,323.073730 361.675568,323.545715 358.871674,324.017700 
	C357.437805,322.408356 356.003967,320.799011 354.809998,319.099670 
	C367.706268,318.998444 380.362732,318.987213 393.482239,318.979248 
M379.006927,336.714081 
	C378.933228,333.589142 379.361450,330.337860 378.617065,327.381805 
	C378.082062,325.257263 376.031708,323.482422 374.467834,321.719757 
	C374.362335,321.600861 371.860779,322.854675 371.821167,323.547150 
	C371.427673,330.425476 371.158783,337.323669 371.316010,344.205750 
	C371.337372,345.140472 373.949402,346.792786 375.261810,346.699890 
	C376.540497,346.609375 378.272461,344.910919 378.753235,343.547455 
	C379.381866,341.764740 378.976471,339.617432 379.006927,336.714081 
z"/>
<path fill="#2E8AB1" opacity="1.000000" stroke="none" 
	d="
M362.746033,255.756485 
	C360.796509,257.652527 359.158539,260.178040 356.838837,261.326050 
	C350.010315,264.705383 343.112885,268.216583 335.855133,270.372284 
	C329.979370,272.117493 326.508881,275.870117 323.508850,280.440552 
	C314.593811,294.022217 305.922852,307.763885 297.044067,321.369659 
	C294.464996,325.321777 291.507812,329.027100 288.400543,332.937775 
	C288.049652,332.535522 288.022156,332.041016 287.981140,331.174622 
	C295.010803,319.678284 302.054413,308.554169 309.096344,297.428925 
	C309.793945,296.326782 310.481171,295.218140 311.226807,293.774963 
	C313.165863,290.511932 315.051331,287.586426 317.316925,284.207336 
	C319.822815,280.502808 321.948608,277.251892 324.292419,273.902588 
	C324.781128,273.595215 324.926270,273.320068 324.945953,272.978729 
	C324.945953,272.978729 325.187469,272.855865 325.592529,272.598145 
	C338.247040,266.812439 350.496552,261.284454 362.746033,255.756485 
z"/>
<path fill="#072533" opacity="1.000000" stroke="none" 
	d="
M362.779358,255.759064 
	C350.496552,261.284454 338.247040,266.812439 325.644775,272.473145 
	C326.142303,271.507416 326.758972,269.929382 327.878662,269.383881 
	C340.243683,263.359985 352.681732,257.485657 365.119781,251.612671 
	C366.002747,251.195770 367.041199,251.108215 368.471497,250.910324 
	C368.935669,250.953125 369.125946,251.149063 368.921936,251.406586 
	C366.755554,253.051422 364.793182,254.438721 362.830811,255.826019 
	C362.830811,255.826019 362.812714,255.761642 362.779358,255.759064 
z"/>
<path fill="#072533" opacity="1.000000" stroke="none" 
	d="
M368.839539,250.856125 
	C372.429749,247.778687 375.985382,244.615463 379.835144,241.863693 
	C384.750153,238.350479 389.902649,235.169479 395.392670,231.854630 
	C395.832550,231.863953 396.001923,232.002014 395.871887,232.247467 
	C395.442169,232.954147 395.142487,233.415375 394.842773,233.876617 
	C394.842773,233.876602 394.920410,233.899841 394.571777,233.947006 
	C388.088196,238.606445 381.953278,243.218719 375.818359,247.830994 
	C375.818359,247.830994 375.899963,247.842422 375.566193,247.859100 
	C374.416046,248.503571 373.599640,249.131393 372.783234,249.759216 
	C372.783234,249.759201 372.865356,249.717194 372.496765,249.771606 
	C371.127441,250.267029 370.126709,250.708054 369.125946,251.149063 
	C369.125946,251.149063 368.935669,250.953125 368.839539,250.856125 
z"/>
<path fill="#000000" opacity="1.000000" stroke="none" 
	d="
M324.074371,274.001007 
	C321.948608,277.251892 319.822815,280.502808 317.367554,283.826355 
	C316.235718,281.997589 315.433319,280.096161 314.280945,277.365356 
	C316.733551,276.386810 319.491364,275.286469 322.884827,274.112061 
	C323.705078,274.025665 323.889709,274.013336 324.074371,274.001007 
z"/>
<path fill="#072533" opacity="1.000000" stroke="none" 
	d="
M395.746399,231.796783 
	C397.177704,230.165390 398.695190,228.601151 400.557556,226.969482 
	C400.902496,226.902069 401.155518,227.150711 401.179199,227.519318 
	C401.085114,228.218094 400.967346,228.548248 400.849609,228.878418 
	C400.849609,228.878418 400.926971,228.979904 400.589478,229.006332 
	C398.835327,230.022522 397.418610,231.012268 396.001923,232.002014 
	C396.001923,232.002014 395.832550,231.863953 395.746399,231.796783 
z"/>
<path fill="#072533" opacity="1.000000" stroke="none" 
	d="
M324.292419,273.902588 
	C323.889709,274.013336 323.705078,274.025665 323.242615,274.038208 
	C323.434937,273.716309 323.905121,273.394196 324.660614,273.025391 
	C324.926270,273.320068 324.781128,273.595215 324.292419,273.902588 
z"/>
<path fill="#000000" opacity="1.000000" stroke="none" 
	d="
M309.506958,283.516266 
	C309.485382,283.524445 309.528534,283.508087 309.506958,283.516266 
z"/>
<path fill="#121512" opacity="1.000000" stroke="none" 
	d="
M285.508240,283.506165 
	C285.487000,283.513763 285.529480,283.498535 285.508240,283.506165 
z"/>
<path fill="#2E8AB1" opacity="1.000000" stroke="none" 
	d="
M287.831055,333.303101 
	C287.827271,333.865387 287.623322,334.675446 287.234192,335.741272 
	C287.242950,335.181610 287.436920,334.366241 287.831055,333.303101 
z"/>
<path fill="#2E8AB1" opacity="1.000000" stroke="none" 
	d="
M341.969727,357.537415 
	C338.910370,357.644531 335.869659,357.329315 332.256683,356.761749 
	C330.793518,355.999359 329.902649,355.489288 329.011749,354.979218 
	C329.002930,354.538574 328.994141,354.097900 329.143250,352.944641 
	C329.527466,349.132324 329.927704,346.033691 329.946655,342.932739 
	C329.997986,334.541687 329.688110,334.170959 322.032104,330.949310 
	C321.982635,327.884308 321.933167,324.819275 321.966339,321.389984 
	C329.562775,320.784363 337.075836,320.480896 344.591370,320.395874 
	C345.359253,320.387146 346.141937,321.688141 346.489777,322.685364 
	C338.785034,322.989380 331.508240,322.989380 324.308807,322.989380 
	C323.601074,326.698242 323.686371,329.345123 328.048645,329.021332 
	C331.184570,328.788574 332.018341,330.486755 331.977753,333.321259 
	C331.876068,340.423920 331.944214,347.528992 331.944214,354.907593 
	C334.673279,354.907593 336.798584,354.907593 339.270081,354.747192 
	C341.616943,348.355377 342.243469,342.153748 339.156982,335.633331 
	C339.401703,333.552551 339.702789,331.869995 340.013519,330.438904 
	C340.664124,331.110443 341.305084,331.530548 341.946045,331.950653 
	C341.960175,340.338806 341.974304,348.726959 341.969727,357.537415 
z"/>
<path fill="#2191C4" opacity="1.000000" stroke="none" 
	d="
M322.032043,331.335693 
	C329.688110,334.170959 329.997986,334.541687 329.946655,342.932739 
	C329.927704,346.033691 329.527466,349.132324 329.137146,352.614105 
	C328.315460,350.781006 327.247162,348.594543 327.089722,346.344360 
	C326.804443,342.266266 327.651489,338.034698 323.223602,335.328949 
	C322.399445,334.825317 322.407837,332.959290 322.032043,331.335693 
z"/>
<path fill="#2191C4" opacity="1.000000" stroke="none" 
	d="
M324.926605,357.524506 
	C318.646576,357.916992 312.294769,357.935150 305.476685,357.925659 
	C305.714813,357.054138 306.401337,355.497894 307.126556,355.479675 
	C312.672089,355.340149 318.226074,355.469849 323.773865,355.634552 
	C324.148865,355.645691 324.495178,356.622498 324.926605,357.524506 
z"/>
<path fill="#2E8AB1" opacity="1.000000" stroke="none" 
	d="
M376.203583,247.853867 
	C381.953278,243.218719 388.088196,238.606445 394.554993,233.910110 
	C390.896454,241.256058 384.306488,245.300705 376.203583,247.853867 
z"/>
<path fill="#2E8AB1" opacity="1.000000" stroke="none" 
	d="
M368.921936,251.406586 
	C370.126709,250.708054 371.127441,250.267029 372.450928,249.766541 
	C369.716156,251.763428 366.658630,253.819778 363.215942,255.851074 
	C364.793182,254.438721 366.755554,253.051422 368.921936,251.406586 
z"/>
<path fill="#2E8AB1" opacity="1.000000" stroke="none" 
	d="
M395.871887,232.247467 
	C397.418610,231.012268 398.835327,230.022522 400.566650,228.946793 
	C399.119995,230.538361 397.358704,232.215897 395.220093,233.885025 
	C395.142487,233.415375 395.442169,232.954147 395.871887,232.247467 
z"/>
<path fill="#2E8AB1" opacity="1.000000" stroke="none" 
	d="
M401.222382,228.884689 
	C400.967346,228.548248 401.085114,228.218094 401.305817,227.643539 
	C402.266235,226.853058 403.123688,226.306961 404.266815,225.666809 
	C403.566711,226.678818 402.580933,227.784882 401.222382,228.884689 
z"/>
<path fill="#2191C4" opacity="1.000000" stroke="none" 
	d="
M329.008362,355.344788 
	C329.902649,355.489288 330.793518,355.999359 331.869690,356.768921 
	C331.237854,357.257111 330.420776,357.485779 329.299652,357.804321 
	C328.998749,357.166229 329.001892,356.438324 329.008362,355.344788 
z"/>
<path fill="#2E8AB1" opacity="1.000000" stroke="none" 
	d="
M373.136780,249.787659 
	C373.599640,249.131393 374.416046,248.503571 375.545166,247.823669 
	C375.068665,248.453094 374.279480,249.134613 373.136780,249.787659 
z"/>
<path fill="#2E8AB1" opacity="1.000000" stroke="none" 
	d="
M404.892883,225.655640 
	C404.832825,225.455078 405.012787,225.124298 405.478363,224.721008 
	C405.553650,224.940826 405.343292,225.233124 404.892883,225.655640 
z"/>
<path fill="#000000" opacity="1.000000" stroke="none" 
	d="
M358.921814,324.417542 
	C361.675568,323.545715 364.479431,323.073730 368.080597,322.467560 
	C368.080597,329.410858 368.051392,335.514465 368.088318,341.617615 
	C368.130219,348.541595 369.285400,349.916809 374.908325,349.931946 
	C379.955048,349.945526 381.800781,347.814514 381.909760,341.470642 
	C382.012268,335.503235 381.931763,329.532745 381.931763,323.298309 
	C384.480103,323.298309 386.564087,323.298309 388.836853,324.108521 
	C388.735321,332.957855 388.444977,340.996979 388.092468,349.238556 
	C388.030273,349.441040 387.936859,349.854248 387.649170,350.003387 
	C386.859039,351.092590 386.356628,352.032684 385.641663,353.040833 
	C385.160156,353.282074 385.005920,353.527374 384.651917,353.905457 
	C383.856384,354.307312 383.375366,354.648529 382.682556,355.023102 
	C382.470825,355.056427 382.059204,355.176056 381.637726,355.115723 
	C377.977386,355.364227 374.739899,355.911377 371.499329,355.930603 
	C365.354462,355.967072 362.240845,353.431885 360.963959,347.231110 
	C360.275970,343.890259 360.216156,340.420105 359.929382,336.636292 
	C359.364838,334.491455 358.743927,332.718536 358.123047,330.945648 
	C358.406006,328.902893 358.688965,326.860107 358.921814,324.417542 
z"/>
<path fill="#000000" opacity="1.000000" stroke="none" 
	d="
M340.003876,330.187439 
	C339.702789,331.869995 339.401703,333.552551 339.069641,336.088867 
	C339.000427,342.930939 338.962128,348.919250 338.923859,354.907593 
	C336.798584,354.907593 334.673279,354.907593 331.944214,354.907593 
	C331.944214,347.528992 331.876068,340.423920 331.977753,333.321259 
	C332.018341,330.486755 331.184570,328.788574 328.048645,329.021332 
	C323.686371,329.345123 323.601074,326.698242 324.308807,322.989380 
	C331.508240,322.989380 338.785034,322.989380 346.527161,323.057434 
	C347.566345,324.595642 348.140137,326.065826 349.012756,328.301605 
	C346.906219,328.897217 344.865906,329.474121 342.100830,330.037231 
	C340.918640,330.078125 340.461273,330.132782 340.003876,330.187439 
z"/>
<path fill="#3E829D" opacity="1.000000" stroke="none" 
	d="
M359.872925,337.008270 
	C360.216156,340.420105 360.275970,343.890259 360.963959,347.231110 
	C362.240845,353.431885 365.354462,355.967072 371.499329,355.930603 
	C374.739899,355.911377 377.977386,355.364227 381.615051,355.405151 
	C381.976166,356.139130 381.938507,356.523438 381.900848,356.907715 
	C376.893555,357.195007 371.886230,357.482300 366.492371,357.856445 
	C364.132477,355.840454 362.159119,353.737579 360.041718,350.976990 
	C358.998657,349.170227 358.099640,348.021149 357.200623,346.872101 
	C357.206268,345.872040 357.211945,344.871948 357.507355,343.315460 
	C358.489044,340.842102 359.180969,338.925201 359.872925,337.008270 
z"/>
<path fill="#2E8AB1" opacity="1.000000" stroke="none" 
	d="
M359.929352,336.636292 
	C359.180969,338.925201 358.489044,340.842102 357.515717,342.940399 
	C357.381256,339.294617 357.528168,335.467499 357.899048,331.292999 
	C358.743927,332.718536 359.364838,334.491455 359.929352,336.636292 
z"/>
<path fill="#2E8AB1" opacity="1.000000" stroke="none" 
	d="
M357.217499,347.216370 
	C358.099640,348.021149 358.998657,349.170227 359.957886,350.648010 
	C359.090149,349.838043 358.162262,348.699371 357.217499,347.216370 
z"/>
<path fill="#23789F" opacity="1.000000" stroke="none" 
	d="
M340.013519,330.438904 
	C340.461273,330.132782 340.918640,330.078125 341.717804,330.089020 
	C342.038269,330.554321 342.016998,330.954102 341.970886,331.652252 
	C341.305084,331.530548 340.664124,331.110443 340.013519,330.438904 
z"/>
<path fill="#3E829D" opacity="1.000000" stroke="none" 
	d="
M388.154633,349.036072 
	C388.444977,340.996979 388.735321,332.957855 389.083984,324.450958 
	C389.433990,328.028381 389.725677,332.073639 390.041107,336.582855 
	C390.028107,340.389984 389.991302,343.733154 389.713135,347.654816 
	C389.032684,348.500916 388.593658,348.768494 388.154633,349.036072 
z"/>
<path fill="#2E8AB1" opacity="1.000000" stroke="none" 
	d="
M382.192993,357.121277 
	C381.938507,356.523438 381.976166,356.139130 382.036530,355.465454 
	C382.059204,355.176056 382.470825,355.056427 382.980774,354.959747 
	C383.982605,354.523651 384.474518,354.184235 384.966431,353.844818 
	C385.005920,353.527374 385.160156,353.282074 385.986847,353.042236 
	C387.002380,352.956390 387.460205,352.937256 387.946716,352.946228 
	C387.975403,352.974335 388.033203,353.030090 388.033203,353.030090 
	C387.397888,354.471924 386.762573,355.913727 386.042847,357.686005 
	C384.800690,357.789276 383.642914,357.562073 382.192993,357.121277 
z"/>
<path fill="#2E8AB1" opacity="1.000000" stroke="none" 
	d="
M388.092468,349.238556 
	C388.593658,348.768494 389.032684,348.500916 389.696228,348.111633 
	C389.492096,349.588989 389.063416,351.188080 388.333984,352.908630 
	C388.033203,353.030090 387.975403,352.974335 387.964600,352.565369 
	C387.948151,351.389038 387.942505,350.621643 387.936859,349.854248 
	C387.936859,349.854248 388.030273,349.441040 388.092468,349.238556 
z"/>
<path fill="#2191C4" opacity="1.000000" stroke="none" 
	d="
M402.788086,335.282593 
	C403.266693,336.110138 403.570343,337.195282 403.847168,338.628021 
	C403.417969,337.830444 403.015564,336.685303 402.788086,335.282593 
z"/>
<path fill="#2191C4" opacity="1.000000" stroke="none" 
	d="
M403.538574,342.090027 
	C403.835052,342.760071 403.854950,343.508820 403.839447,344.631287 
	C403.110992,344.561279 402.417908,344.117493 401.724823,343.673706 
	C402.237213,343.172058 402.749603,342.670380 403.538574,342.090027 
z"/>
<path fill="#2191C4" opacity="1.000000" stroke="none" 
	d="
M403.594177,349.103699 
	C403.814087,349.456146 403.829742,349.891083 403.812775,350.650665 
	C403.650055,350.378906 403.519958,349.782562 403.594177,349.103699 
z"/>
<path fill="#000000" opacity="1.000000" stroke="none" 
	d="
M404.988770,338.996582 
	C404.985443,333.537750 404.985443,328.576904 404.985443,323.026733 
	C410.794830,323.026733 416.251862,322.664703 421.633240,323.147064 
	C425.581390,323.500977 427.812317,326.546814 428.669769,330.377991 
	C429.586517,334.473907 428.479980,338.294983 424.973083,340.331543 
	C421.330231,342.446991 421.771149,344.087311 423.952148,346.826691 
	C425.761322,349.098999 427.107971,351.739532 429.067963,354.869110 
	C425.037384,354.671936 421.382782,356.693146 419.266602,351.906036 
	C417.907501,348.831512 415.944214,346.024078 414.251770,343.096924 
	C413.776489,343.093170 413.301208,343.089417 412.825928,343.085663 
	C412.559540,345.311371 412.217743,347.531281 412.047150,349.764313 
	C411.862213,352.184845 412.578766,354.912872 408.585510,355.005310 
	C404.601196,355.097534 405.000763,352.491638 404.997894,349.975739 
	C404.993896,346.482025 404.993866,342.988281 404.988770,338.996582 
M419.994781,330.003754 
	C419.994781,330.003754 420.046722,329.993805 419.728546,329.280273 
	C417.473694,329.081238 415.218842,328.882233 412.963989,328.683197 
	C412.732971,331.537689 412.104553,334.451569 412.516541,337.210022 
	C412.637909,338.022461 415.759979,339.000427 417.407959,338.846161 
	C421.082886,338.502075 421.952454,335.110413 419.994781,330.003754 
z"/>
<path fill="#2092C6" opacity="1.000000" stroke="none" 
	d="
M379.011414,337.170532 
	C378.976471,339.617432 379.381866,341.764740 378.753235,343.547455 
	C378.272461,344.910919 376.540497,346.609375 375.261810,346.699890 
	C373.949402,346.792786 371.337372,345.140472 371.316010,344.205750 
	C371.158783,337.323669 371.427673,330.425476 371.821167,323.547150 
	C371.860779,322.854675 374.362335,321.600861 374.467834,321.719757 
	C376.031708,323.482422 378.082062,325.257263 378.617065,327.381805 
	C379.361450,330.337860 378.933228,333.589142 379.011414,337.170532 
z"/>
<path fill="#23789F" opacity="1.000000" stroke="none" 
	d="
M339.270081,354.747192 
	C338.962128,348.919250 339.000427,342.930939 339.126007,336.487061 
	C342.243469,342.153748 341.616943,348.355377 339.270081,354.747192 
z"/>
<path fill="#3E829D" opacity="1.000000" stroke="none" 
	d="
M387.649170,350.003387 
	C387.942505,350.621643 387.948151,351.389038 387.935913,352.537292 
	C387.460205,352.937256 387.002380,352.956390 386.199402,352.974121 
	C386.356628,352.032684 386.859039,351.092590 387.649170,350.003387 
z"/>
<path fill="#3E829D" opacity="1.000000" stroke="none" 
	d="
M384.651917,353.905457 
	C384.474518,354.184235 383.982605,354.523651 383.192505,354.926422 
	C383.375366,354.648529 383.856384,354.307312 384.651917,353.905457 
z"/>
<path fill="#3E829D" opacity="1.000000" stroke="none" 
	d="
M420.006012,329.952026 
	C421.952454,335.110413 421.082886,338.502075 417.407959,338.846161 
	C415.759979,339.000427 412.637909,338.022461 412.516541,337.210022 
	C412.104553,334.451569 412.732971,331.537689 412.963989,328.683197 
	C415.218842,328.882233 417.473694,329.081238 419.481934,329.649780 
	C418.582245,330.038025 417.740326,329.802917 417.311005,330.122375 
	C415.941376,331.141479 414.107147,332.168732 413.655762,333.578247 
	C413.326843,334.605377 414.900085,336.241638 415.625305,337.606323 
	C417.000397,336.191711 418.572968,334.911804 419.668213,333.306274 
	C420.224518,332.490875 419.920868,331.088867 420.006012,329.952026 
z"/>
<path fill="#2191C4" opacity="1.000000" stroke="none" 
	d="
M420.000397,329.977905 
	C419.920868,331.088867 420.224518,332.490875 419.668213,333.306274 
	C418.572968,334.911804 417.000397,336.191711 415.625305,337.606323 
	C414.900085,336.241638 413.326843,334.605377 413.655762,333.578247 
	C414.107147,332.168732 415.941376,331.141479 417.311005,330.122375 
	C417.740326,329.802917 418.582245,330.038025 419.641022,330.006531 
	C420.046722,329.993805 419.994781,330.003754 420.000397,329.977905 
z"/>
</svg>